<svg width="57" height="86" viewBox="0 0 57 86" fill="none" xmlns="http://www.w3.org/2000/svg">
<path d="M45.6039 0L35.8954 26.867H30.501L40.1811 0.0218664V0H45.6039Z" fill="#9871F3"/>
<path d="M40.1808 6.10352e-05V0.0219274L30.5008 26.8671H25.1741L34.8542 0.0219274V6.10352e-05H40.1808Z" fill="#F0F0F0"/>
<path d="M34.8543 0V0.0218664L25.1742 26.867H19.7324L29.4409 0H34.8543Z" fill="#6F9DE2"/>
<path d="M39.688 27.2671C40.4009 28.8428 40.7969 30.5387 40.86 32.2597C37.0444 30.3277 32.7209 29.2382 28.1419 29.2382C23.3074 29.2382 18.7599 30.4527 14.793 32.5879C14.8135 30.7544 15.2157 28.9427 15.9729 27.267L16.3262 26.4871C16.7205 25.6133 17.5408 25.0021 18.4982 24.8693L19.5408 24.7239C25.0394 23.9611 30.6215 23.9611 36.1217 24.7239L37.1627 24.8693C38.1202 25.0022 38.9404 25.6133 39.3348 26.4871L39.688 27.2671ZM36.8819 28.0346V27.0092C36.8819 26.7122 36.639 26.4715 36.3394 26.4715H19.3215C19.0218 26.4715 18.7789 26.7122 18.7789 27.0092V28.0346C18.7789 28.3331 19.0218 28.5738 19.3215 28.5738H36.3394C36.639 28.5738 36.8819 28.3332 36.8819 28.0346Z" fill="#C9C9C9"/>
<path d="M10.0225 0L19.7309 26.867H25.1254L15.4454 0.0218664V0H10.0225Z" fill="#6F9DE2"/>
<path d="M15.4453 0V0.0218664L25.1253 26.867H30.452L20.7718 0.0218664V0H15.4453Z" fill="#F0F0F0"/>
<path d="M20.7715 0V0.0218664L30.4516 26.867H35.8934L26.185 0H20.7715Z" fill="#9871F3"/>
<path d="M41.0502 32.2598C50.1215 36.8491 56.333 46.1981 56.333 56.9852C56.333 72.31 43.7964 84.7337 28.3323 84.7337C12.8681 84.7337 0.333008 72.3101 0.333008 56.9852C0.333008 46.4513 6.25592 37.2882 14.9832 32.588C18.9503 30.4528 23.4977 29.2382 28.3322 29.2382C32.9112 29.2382 37.2347 30.3277 41.0502 32.2598Z" fill="#B8B8B8"/>
<path d="M28.3322 82.5223C21.4491 82.5223 14.9783 79.8659 10.1115 75.0426C5.24469 70.2193 2.56445 63.8063 2.56445 56.9851C2.56445 47.6145 7.73106 39.0108 16.0479 34.5316C19.7939 32.5154 24.0418 31.4495 28.3322 31.4495C32.455 31.4495 36.3927 32.3849 40.0358 34.2296C44.2022 36.3374 47.7168 39.5325 50.2004 43.4696C52.7525 47.5155 54.1015 52.1891 54.1015 56.9852C54.1015 63.8063 51.4209 70.2192 46.5537 75.0426C41.6865 79.866 35.2153 82.5223 28.3322 82.5223Z" fill="#C9C9C9"/>
<path d="M23.7572 32.7095C23.755 32.7112 23.7551 32.7129 23.753 32.7146C23.6325 32.8216 21.9249 34.3779 21.2549 35.7318C20.5589 37.1342 18.3956 38.5401 18.3954 38.5406C18.3916 38.5409 18.4667 36.3935 19.3742 35.4084C20.4566 34.2198 23.6569 32.7533 23.7572 32.7095Z" fill="#929292"/>
<path d="M23.0612 33.8308C22.6746 34.7613 22.4503 35.5635 21.8892 36.5927C21.5619 37.1931 20.0072 38.2271 19.0677 38.4504C18.6921 38.589 18.3953 38.5407 18.3953 38.5407C18.3957 38.5401 20.5588 37.1344 21.2549 35.7319C21.9248 34.3779 23.6321 32.8216 23.7529 32.7147C23.7007 32.7836 23.2636 33.3456 23.0612 33.8308Z" fill="#E6E6E6"/>
<path d="M26.2959 37.1515C26.2931 37.1519 26.2917 37.1531 26.2889 37.1534C26.1197 37.1762 23.6895 37.523 22.1405 38.2527C20.5353 39.0101 17.8809 38.959 17.8809 38.959C17.8787 38.958 19.6549 37.2761 21.0734 36.9705C22.7773 36.5998 26.1886 37.1347 26.2959 37.1515Z" fill="#929292"/>
<path d="M24.9219 37.6891C23.9151 38.2366 23.1223 38.765 21.9066 39.2908C21.1975 39.5983 19.2687 39.5851 18.4271 39.2521C18.0505 39.1587 17.8811 38.9585 17.8811 38.9585C17.8811 38.9585 20.5356 39.01 22.1407 38.2526C23.6896 37.523 26.1199 37.1762 26.2891 37.1533C26.1981 37.1815 25.4473 37.4041 24.9219 37.6891Z" fill="#E6E6E6"/>
<path d="M18.5248 35.7625C18.5231 35.7644 18.5233 35.766 18.5215 35.768C18.4208 35.8874 17.0109 37.6215 16.6062 39.0312C16.1838 40.491 14.2979 42.1374 14.298 42.1378C14.2942 42.1384 13.9416 40.0239 14.6568 38.9469C15.506 37.6484 18.4319 35.8175 18.5248 35.7625Z" fill="#929292"/>
<path d="M18.0446 36.9462C17.8386 37.9051 17.7709 38.7185 17.4107 39.7967C17.2002 40.4256 15.8482 41.6312 14.9526 41.9664C14.604 42.1489 14.2976 42.138 14.2976 42.138C14.2973 42.1375 16.1835 40.4912 16.6057 39.0313C17.0102 37.6217 18.4205 35.8877 18.5211 35.7681C18.482 35.842 18.1528 36.4461 18.0446 36.9462Z" fill="#E6E6E6"/>
<path d="M21.9309 39.8043C21.9283 39.8049 21.9269 39.8064 21.9242 39.8069C21.7595 39.8499 19.3941 40.4872 17.9874 41.3937C16.5307 42.3338 13.8655 42.6119 13.865 42.6116C13.8623 42.6112 15.3056 40.7423 16.6669 40.2676C18.3011 39.6934 21.8211 39.8004 21.9309 39.8043Z" fill="#929292"/>
<path d="M20.66 40.4998C19.7593 41.1602 19.0694 41.776 17.9574 42.4415C17.3092 42.8301 15.3783 43.0546 14.4699 42.8321C14.0747 42.787 13.865 42.6116 13.865 42.6116C13.8655 42.6119 16.5306 42.3339 17.9874 41.3938C19.3941 40.4874 21.7595 39.85 21.9242 39.807C21.8386 39.8458 21.1305 40.1557 20.66 40.4998Z" fill="#E6E6E6"/>
<path d="M13.6351 39.6293C13.6338 39.6315 13.6345 39.633 13.6335 39.6352C13.5692 39.7688 12.6988 41.7008 12.7309 43.1293C12.7587 44.6091 11.4061 46.5551 11.4074 46.5558C11.404 46.5565 10.4019 44.5989 10.7772 43.4294C11.2147 42.0203 13.5584 39.6996 13.6351 39.6293Z" fill="#929292"/>
<path d="M13.5188 40.854C13.6064 41.8111 13.7869 42.6028 13.7603 43.7056C13.7438 44.349 12.779 45.7676 11.9998 46.2635C11.7125 46.5064 11.407 46.5557 11.407 46.5557C11.4061 46.5551 12.7587 44.609 12.7308 43.1293C12.6985 41.7007 13.5689 39.7688 13.6333 39.6351C13.617 39.7133 13.4738 40.3548 13.5188 40.854Z" fill="#E6E6E6"/>
<path d="M18.2276 42.8382C18.2251 42.8393 18.2241 42.8409 18.2217 42.842C18.0719 42.9148 15.9273 43.9825 14.8169 45.1249C13.6669 46.3086 11.1277 47.0941 11.1277 47.0941C11.1237 47.0941 11.9693 45.0207 13.1696 44.3014C14.6081 43.4326 18.1185 42.855 18.2276 42.8382Z" fill="#929292"/>
<path d="M17.1828 43.7505C16.4935 44.558 16.0001 45.2824 15.1074 46.1362C14.5872 46.6347 12.7554 47.2244 11.7917 47.1879C11.3885 47.2215 11.1275 47.0943 11.1277 47.0942C11.1283 47.0941 13.6675 46.3087 14.8173 45.1249C15.9278 43.9825 18.0723 42.9149 18.2222 42.842C18.1492 42.8957 17.5432 43.3296 17.1828 43.7505Z" fill="#E6E6E6"/>
<path d="M10.1024 43.9567C10.1016 43.959 10.1027 43.9603 10.1017 43.9626C10.0582 44.1006 9.49342 46.091 9.75534 47.5C10.0198 48.9601 8.98029 51.0128 8.9816 51.0133C8.97858 51.0142 7.65918 49.1724 7.846 47.9813C8.05627 46.5471 10.0362 44.0333 10.1024 43.9567Z" fill="#929292"/>
<path d="M10.1808 45.1774C10.4218 46.1146 10.7288 46.88 10.8785 47.973C10.9648 48.6106 10.2263 50.1046 9.52695 50.6686C9.27858 50.9358 8.9812 51.0135 8.9812 51.0135C8.97958 51.0129 10.0192 48.9601 9.75486 47.5002C9.49287 46.091 10.058 44.1007 10.1013 43.9628C10.0974 44.0413 10.056 44.6884 10.1808 45.1774Z" fill="#E6E6E6"/>
<path d="M15.2155 46.6965C15.2131 46.6979 15.2128 46.6995 15.2103 46.7008C15.0715 46.7867 13.0923 48.0432 12.1638 49.2774C11.2017 50.5563 8.78969 51.5722 8.78884 51.5725C8.78512 51.5726 9.29572 49.4419 10.383 48.6177C11.684 47.6229 15.1089 46.7232 15.2155 46.6965Z" fill="#929292"/>
<path d="M14.3129 47.6965C13.7504 48.5598 13.372 49.3225 12.6153 50.2512C12.1744 50.7932 10.4376 51.5483 9.4681 51.6029C9.07039 51.6741 8.78882 51.5727 8.78882 51.5727C8.78959 51.5724 11.2017 50.5565 12.1637 49.2776C13.0922 48.0434 15.0714 46.787 15.2103 46.701C15.1458 46.7607 14.6069 47.2465 14.3129 47.6965Z" fill="#E6E6E6"/>
<path d="M7.42716 48.6794C7.42724 48.6817 7.42825 48.683 7.42801 48.6854C7.41973 48.8261 7.36654 50.8508 7.98637 52.1828C8.62013 53.5637 8.11993 55.7292 8.1221 55.7295C8.12016 55.7305 6.3415 54.1403 6.21964 52.9511C6.05713 51.5207 7.37947 48.764 7.42716 48.6794Z" fill="#929292"/>
<path d="M7.81612 49.8544C8.29365 50.7286 8.79263 51.4259 9.21914 52.4678C9.46657 53.0757 9.11787 54.6482 8.57244 55.3078C8.39592 55.6074 8.12209 55.7294 8.12209 55.7294C8.11977 55.7292 8.62028 53.5636 7.98636 52.1827C7.36645 50.8506 7.41973 48.8261 7.42801 48.6852C7.4438 48.7625 7.5676 49.3982 7.81612 49.8544Z" fill="#E6E6E6"/>
<path d="M13.1884 50.5482C13.1865 50.5498 13.1865 50.5515 13.1844 50.5532C13.0683 50.6584 11.4248 52.1908 10.8213 53.5397C10.1947 54.9369 8.07595 56.3048 8.07548 56.3052C8.07161 56.3058 8.02711 54.1468 8.89267 53.1738C9.92461 52.0001 13.0893 50.5903 13.1884 50.5482Z" fill="#929292"/>
<path d="M12.5461 51.6635C12.2071 52.5928 12.0257 53.3957 11.5144 54.4198C11.2161 55.0173 9.69529 56.0244 8.75308 56.229C8.37937 56.3605 8.0748 56.3054 8.07495 56.3054C8.07518 56.305 10.1942 54.9372 10.8208 53.5398C11.4241 52.1909 13.0677 50.6586 13.1839 50.5533C13.1349 50.6216 12.7237 51.1789 12.5461 51.6635Z" fill="#E6E6E6"/>
<path d="M5.90231 53.5476C5.90278 53.55 5.90425 53.551 5.90456 53.5533C5.93019 53.692 6.37335 55.6778 7.31254 56.8902C8.27658 58.1478 8.31436 60.3441 8.31738 60.3443C8.31622 60.3451 6.16988 59.0484 5.75552 57.9033C5.24083 56.527 5.87459 53.6371 5.90231 53.5476Z" fill="#929292"/>
<path d="M6.57528 54.6382C7.26161 55.4221 7.92557 56.0303 8.60114 56.9877C8.99382 57.5462 9.03385 59.1381 8.65836 59.8649C8.55771 60.1844 8.31817 60.3445 8.31817 60.3445C8.31515 60.3444 8.27721 58.148 7.31325 56.8904C6.37406 55.6781 5.9309 53.6921 5.90527 53.5535C5.93996 53.6264 6.21775 54.2291 6.57528 54.6382Z" fill="#E6E6E6"/>
<path d="M12.0596 54.5251C12.0581 54.5271 12.0583 54.5287 12.0567 54.5307C11.967 54.6505 10.7108 56.3918 10.4443 57.8019C10.165 59.2629 8.41364 60.915 8.4138 60.9156C8.41001 60.9163 7.8343 58.8065 8.45096 57.7266C9.1815 56.4252 11.9709 54.5806 12.0596 54.5251Z" fill="#929292"/>
<path d="M11.694 55.7114C11.5833 56.6712 11.5985 57.4845 11.343 58.5633C11.1939 59.1926 9.94103 60.4027 9.06339 60.7415C8.72723 60.9253 8.41406 60.9159 8.41406 60.9159C8.41383 60.9154 10.1652 59.2632 10.4447 57.8023C10.7113 56.3919 11.9673 54.651 12.0571 54.531C12.0249 54.605 11.7525 55.2108 11.694 55.7114Z" fill="#E6E6E6"/>
<path d="M5.83179 59.2175C5.8331 59.2196 5.83473 59.2204 5.83589 59.2225C5.90712 59.3505 7.00478 61.1707 8.32093 62.1502C9.67571 63.1672 10.4492 65.284 10.4527 65.2836C10.4523 65.284 7.94375 64.4636 7.15522 63.4437C6.19133 62.2196 5.83365 59.3088 5.83179 59.2175Z" fill="#929292"/>
<path d="M6.85031 60.1299C7.77905 60.7449 8.62626 61.1962 9.60037 61.9832C10.1669 62.4426 10.7377 63.9727 10.6198 64.7514C10.6301 65.0808 10.453 65.2837 10.453 65.2837C10.4493 65.2841 9.67553 63.1674 8.32098 62.1503C7.00483 61.1709 5.90724 59.3506 5.83594 59.2227C5.89431 59.2856 6.36635 59.8087 6.85031 60.1299Z" fill="#E6E6E6"/>
<path d="M12.1356 58.908C12.1348 58.9102 12.1354 58.9116 12.1347 58.9139C12.0859 59.0479 11.4433 60.9808 11.6559 62.3974C11.8708 63.8653 10.7366 65.8165 10.738 65.817C10.7347 65.818 9.4678 63.8938 9.70293 62.7271C9.97173 61.3222 12.0665 58.9793 12.1356 58.908Z" fill="#929292"/>
<path d="M12.1721 60.1263C12.3821 61.0751 12.666 61.858 12.7775 62.9525C12.8418 63.5911 12.0369 65.0135 11.3053 65.5177C11.0431 65.7632 10.738 65.817 10.738 65.817C10.7368 65.8166 11.8708 63.8653 11.656 62.3974C11.4434 60.9807 12.0862 59.0478 12.1349 58.9139C12.1282 58.9919 12.063 59.6314 12.1721 60.1263Z" fill="#E6E6E6"/>
<path d="M7.19897 64.0339C7.20037 64.036 7.202 64.0367 7.20347 64.0388C7.285 64.1637 8.52821 65.9384 9.9241 66.8689C11.3615 67.8355 12.302 69.9175 12.3053 69.917C12.3051 69.9176 9.72723 69.1853 8.85671 68.1968C7.79396 67.0108 7.20788 64.1247 7.19897 64.0339Z" fill="#929292"/>
<path d="M8.29215 64.9074C9.2716 65.488 10.1562 65.9083 11.194 66.659C11.7979 67.0971 12.4888 68.6017 12.4315 69.3812C12.4673 69.7089 12.3056 69.917 12.3056 69.917C12.3022 69.9174 11.362 67.8356 9.92449 66.869C8.52851 65.9384 7.28523 64.1638 7.20386 64.0388C7.26703 64.0996 7.78156 64.6042 8.29215 64.9074Z" fill="#E6E6E6"/>
<path d="M13.4972 63.5104C13.4966 63.5125 13.4972 63.514 13.4967 63.5162C13.4582 63.6512 12.9629 65.5981 13.2861 67.0017C13.6148 68.4565 12.6311 70.4381 12.6323 70.4386C12.6291 70.4396 11.2095 68.5662 11.3541 67.3963C11.5138 65.9881 13.4333 63.5836 13.4972 63.5104Z" fill="#929292"/>
<path d="M13.6276 64.7224C13.9116 65.6602 14.2565 66.4303 14.4531 67.5165C14.5669 68.1503 13.8708 69.5944 13.1772 70.1213C12.9334 70.3747 12.6321 70.4386 12.6321 70.4386C12.6309 70.4381 13.6147 68.4565 13.286 67.0016C12.9626 65.5981 13.4582 63.6512 13.4966 63.5162C13.4958 63.594 13.4802 64.2331 13.6276 64.7224Z" fill="#E6E6E6"/>
<path d="M9.948 69.316C9.95001 69.3177 9.95209 69.3179 9.9541 69.3197C10.0784 69.4215 11.9248 70.8571 13.596 71.4509C15.3205 72.069 16.9841 73.8823 16.9877 73.8815C16.9882 73.8815 14.2764 73.7326 13.0797 72.9685C11.6276 72.0535 9.98965 69.4007 9.948 69.316Z" fill="#929292"/>
<path d="M11.3138 69.9162C12.4618 70.26 13.459 70.4713 14.7229 70.9697C15.4589 71.2607 16.6712 72.5666 16.9069 73.3348C17.0631 73.6444 16.9875 73.8814 16.9875 73.8814C16.984 73.8823 15.3204 72.069 13.5957 71.4509C11.9242 70.857 10.0783 69.4215 9.95386 69.3196C10.0367 69.3641 10.715 69.7363 11.3138 69.9162Z" fill="#E6E6E6"/>
<path d="M14.3757 74.0648C14.3782 74.0662 14.3799 74.0661 14.3825 74.0675C14.5297 74.1506 16.6891 75.3127 18.4661 75.6716C20.3015 76.0464 22.3678 77.6154 22.3708 77.6143C22.3708 77.6143 19.6934 77.8332 18.3372 77.2413C16.6951 76.534 14.4376 74.1421 14.3757 74.0648Z" fill="#929292"/>
<path d="M15.8591 74.469C17.0658 74.6505 18.0919 74.7226 19.4479 75.0428C20.2378 75.2298 21.7402 76.3561 22.1582 77.0844C22.3864 77.3696 22.3708 77.6143 22.3708 77.6143C22.368 77.6153 20.3015 76.0464 18.4661 75.6717C16.6892 75.3126 14.5296 74.1506 14.3826 74.0676C14.4748 74.1 15.2298 74.3737 15.8591 74.469Z" fill="#E6E6E6"/>
<path d="M15.7534 67.4233C15.7535 67.4256 15.755 67.4267 15.7551 67.429C15.767 67.5678 16.0095 69.556 16.8351 70.8443C17.6823 72.1804 17.4879 74.316 17.4905 74.3161C17.4889 74.3172 15.4461 72.81 15.1482 71.6476C14.7739 70.2504 15.7173 67.5079 15.7534 67.4233Z" fill="#929292"/>
<path d="M16.3212 68.5655C16.9354 69.4097 17.5455 70.0794 18.1318 71.0889C18.4723 71.6779 18.3464 73.2289 17.8873 73.8903C17.7513 74.1888 17.4903 74.3162 17.4903 74.3162C17.4879 74.3161 17.6823 72.1805 16.8349 70.8444C16.0093 69.5561 15.767 67.5679 15.7549 67.4291C15.7823 67.5045 16.0014 68.1249 16.3212 68.5655Z" fill="#E6E6E6"/>
<path d="M19.3295 71.8284C19.3301 71.8303 19.332 71.8311 19.3322 71.8332C19.3733 71.9512 20.0221 73.6373 21.0107 74.6499C22.0282 75.701 22.3315 77.5758 22.3339 77.5755C22.333 77.5761 20.2621 76.5207 19.7497 75.553C19.1207 74.3905 19.3168 71.9059 19.3295 71.8284Z" fill="#929292"/>
<path d="M20.0679 72.7437C20.7794 73.3966 21.4484 73.9002 22.1703 74.7017C22.5904 75.1693 22.8233 76.5283 22.5778 77.1578C22.5275 77.4332 22.3334 77.5754 22.3334 77.5754C22.3311 77.5756 22.0277 75.7007 21.0103 74.6498C20.0218 73.6371 19.3729 71.9511 19.3318 71.8331C19.372 71.8946 19.6972 72.4028 20.0679 72.7437Z" fill="#E6E6E6"/>
<path d="M31.8945 32.7095C31.8968 32.7112 31.8967 32.7129 31.8988 32.7145C32.0193 32.8215 33.7268 34.3778 34.3968 35.7318C35.0929 37.1342 37.2561 38.5401 37.2564 38.5405C37.2602 38.5408 37.1851 36.3934 36.2775 35.4084C35.1951 34.2198 31.9948 32.7533 31.8945 32.7095Z" fill="#929292"/>
<path d="M32.5902 33.8308C32.9767 34.7613 33.201 35.5634 33.7622 36.5926C34.0894 37.1931 35.6441 38.2271 36.5837 38.4503C36.9593 38.589 37.256 38.5406 37.256 38.5406C37.2557 38.54 35.0926 37.1343 34.3965 35.7318C33.7266 34.3778 32.0191 32.8216 31.8984 32.7146C31.9507 32.7835 32.3877 33.3456 32.5902 33.8308Z" fill="#E6E6E6"/>
<path d="M29.3555 37.1515C29.3583 37.1519 29.3597 37.153 29.3624 37.1533C29.5316 37.1762 31.9618 37.523 33.5109 38.2526C35.116 39.01 37.7705 38.9589 37.7705 38.9589C37.7727 38.9579 35.9965 37.2761 34.5779 36.9704C32.8741 36.5998 29.4628 37.1347 29.3555 37.1515Z" fill="#929292"/>
<path d="M30.7295 37.689C31.7362 38.2365 32.5291 38.765 33.7449 39.2908C34.4539 39.5982 36.3827 39.5851 37.2243 39.252C37.6009 39.1586 37.7703 38.9585 37.7703 38.9585C37.7703 38.9585 35.1158 39.01 33.5107 38.2525C31.9619 37.5229 29.5315 37.1761 29.3623 37.1533C29.4534 37.1814 30.2042 37.4041 30.7295 37.689Z" fill="#E6E6E6"/>
<path d="M37.1279 35.7624C37.1296 35.7643 37.1295 35.7659 37.1313 35.7678C37.2319 35.8873 38.6419 37.6214 39.0466 39.031C39.469 40.4909 41.3549 42.1372 41.3547 42.1377C41.3586 42.1382 41.7112 40.0238 40.996 38.9468C40.1468 37.6483 37.2208 35.8174 37.1279 35.7624Z" fill="#929292"/>
<path d="M37.6074 36.9461C37.8134 37.905 37.8811 38.7184 38.2413 39.7966C38.4517 40.4255 39.8037 41.6311 40.6993 41.9662C41.048 42.1488 41.3543 42.1379 41.3543 42.1379C41.3546 42.1373 39.4684 40.4911 39.0462 39.0312C38.6417 37.6216 37.2314 35.8875 37.1309 35.768C37.1699 35.8419 37.4991 36.446 37.6074 36.9461Z" fill="#E6E6E6"/>
<path d="M33.7207 39.8042C33.7232 39.8048 33.7247 39.8063 33.7274 39.8068C33.8921 39.8498 36.2575 40.4871 37.6642 41.3936C39.121 42.3337 41.7861 42.6117 41.7866 42.6115C41.7893 42.611 40.346 40.7421 38.9847 40.2675C37.3506 39.6933 33.8306 39.8003 33.7207 39.8042Z" fill="#929292"/>
<path d="M34.9915 40.4997C35.8922 41.1601 36.582 41.7758 37.6942 42.4413C38.3422 42.8299 40.2733 43.0545 41.1817 42.8319C41.5768 42.7869 41.7865 42.6115 41.7865 42.6115C41.786 42.6118 39.1208 42.3338 37.6641 41.3937C36.2575 40.4873 33.892 39.8499 33.7273 39.8069C33.813 39.8456 34.5211 40.1556 34.9915 40.4997Z" fill="#E6E6E6"/>
<path d="M42.0166 39.629C42.0178 39.6313 42.0171 39.6327 42.0182 39.6349C42.0826 39.7686 42.9529 41.7006 42.9207 43.1291C42.893 44.6088 44.2455 46.5549 44.2444 46.5555C44.2478 46.5563 45.2498 44.5987 44.8745 43.4291C44.4369 42.0201 42.0932 39.6994 42.0166 39.629Z" fill="#929292"/>
<path d="M42.1328 40.8539C42.0451 41.8109 41.8647 42.6026 41.8913 43.7054C41.9077 44.3488 42.8726 45.7674 43.6518 46.2633C43.9391 46.5062 44.2446 46.5555 44.2446 46.5555C44.2455 46.5549 42.8929 44.6088 42.9207 43.1291C42.9531 41.7006 42.0826 39.7686 42.0182 39.6349C42.0346 39.7131 42.1779 40.3546 42.1328 40.8539Z" fill="#E6E6E6"/>
<path d="M37.4238 42.8381C37.4262 42.8392 37.4273 42.8408 37.4296 42.8418C37.5794 42.9147 39.7241 43.9824 40.8344 45.1247C41.9844 46.3085 44.5236 47.094 44.5241 47.094C44.5276 47.094 43.6821 45.0205 42.4817 44.3013C41.0433 43.4325 37.5329 42.8549 37.4238 42.8381Z" fill="#929292"/>
<path d="M38.4691 43.7504C39.1585 44.5578 39.6517 45.2823 40.5444 46.1361C41.0646 46.6346 42.8965 47.2243 43.8601 47.1878C44.2633 47.2214 44.5244 47.0941 44.5241 47.0941C44.5235 47.094 41.9844 46.3086 40.8345 45.1248C39.7241 43.9824 37.5796 42.9147 37.4297 42.8419C37.5027 42.8955 38.1086 43.3295 38.4691 43.7504Z" fill="#E6E6E6"/>
<path d="M45.5491 43.9566C45.5499 43.9589 45.5488 43.9603 45.5498 43.9626C45.5933 44.1005 46.1581 46.091 45.8961 47.5C45.6317 48.96 46.6712 51.0128 46.6699 51.0132C46.6729 51.0141 47.9923 49.1723 47.8055 47.9812C47.5952 46.5471 45.6153 44.0333 45.5491 43.9566Z" fill="#929292"/>
<path d="M45.4703 45.1774C45.2295 46.1146 44.9224 46.8801 44.7728 47.9731C44.6865 48.6106 45.425 50.1047 46.1242 50.6687C46.3727 50.9359 46.67 51.0135 46.67 51.0135C46.6717 51.013 45.6321 48.9602 45.8964 47.5002C46.1584 46.0911 45.5933 44.1008 45.55 43.9628C45.5538 44.0414 45.5952 44.6885 45.4703 45.1774Z" fill="#E6E6E6"/>
<path d="M40.436 46.6964C40.4384 46.6978 40.4387 46.6995 40.4412 46.7008C40.58 46.7866 42.5592 48.0431 43.4878 49.2774C44.4499 50.5563 46.8619 51.5721 46.8627 51.5725C46.8664 51.5726 46.3558 49.4418 45.2686 48.6176C43.9675 47.6228 40.5426 46.7231 40.436 46.6964Z" fill="#929292"/>
<path d="M41.3392 47.6965C41.9017 48.5598 42.2801 49.3225 43.0368 50.2512C43.4777 50.7932 45.2146 51.5483 46.1841 51.6029C46.5818 51.6741 46.8635 51.5727 46.8635 51.5727C46.8626 51.5724 44.4505 50.5565 43.4885 49.2776C42.5601 48.0434 40.5808 46.787 40.4419 46.701C40.5064 46.7607 41.0452 47.2465 41.3392 47.6965Z" fill="#E6E6E6"/>
<path d="M48.2251 48.6793C48.225 48.6816 48.224 48.6828 48.2243 48.6852C48.2325 48.826 48.2857 50.8506 47.6658 52.1826C47.0321 53.5635 47.5323 55.729 47.5301 55.7294C47.5321 55.7303 49.3107 54.1401 49.4326 52.9509C49.5951 51.5205 48.2727 48.7638 48.2251 48.6793Z" fill="#929292"/>
<path d="M47.836 49.8542C47.3585 50.7284 46.8596 51.4257 46.4331 52.4677C46.1856 53.0755 46.5343 54.648 47.0798 55.3076C47.2563 55.6072 47.5301 55.7292 47.5301 55.7292C47.5324 55.729 47.032 53.5634 47.6658 52.1825C48.2858 50.8504 48.2325 48.8259 48.2242 48.6851C48.2084 48.7623 48.0845 49.398 47.836 49.8542Z" fill="#E6E6E6"/>
<path d="M42.4636 50.548C42.4655 50.5496 42.4656 50.5513 42.4676 50.553C42.5838 50.6581 44.2272 52.1905 44.8308 53.5394C45.4573 54.9367 47.5761 56.3045 47.5766 56.305C47.5804 56.3055 47.625 54.1466 46.7594 53.1735C45.7274 51.9999 42.5626 50.5901 42.4636 50.548Z" fill="#929292"/>
<path d="M43.1052 51.6631C43.4441 52.5924 43.6256 53.3953 44.1369 54.4194C44.4352 55.0169 45.9559 56.024 46.8981 56.2286C47.2719 56.3601 47.5764 56.305 47.5764 56.305C47.5759 56.3046 45.457 54.9368 44.8304 53.5394C44.2271 52.1905 42.5835 50.6582 42.4673 50.553C42.5164 50.6213 42.9276 51.1786 43.1052 51.6631Z" fill="#E6E6E6"/>
<path d="M49.7491 53.5474C49.7486 53.5497 49.7471 53.5507 49.7468 53.553C49.7212 53.6918 49.278 55.6776 48.3388 56.89C47.3748 58.1475 47.337 60.3439 47.334 60.344C47.3351 60.3449 49.4815 59.0481 49.8958 57.903C50.4105 56.5268 49.7768 53.6368 49.7491 53.5474Z" fill="#929292"/>
<path d="M49.0773 54.6379C48.3909 55.4218 47.727 56.03 47.0515 56.9873C46.6588 57.5459 46.6188 59.1378 46.9943 59.8645C47.0949 60.1841 47.3344 60.3441 47.3344 60.3441C47.3375 60.344 47.3754 58.1476 48.3394 56.89C49.2786 55.6777 49.7217 53.6917 49.7473 53.5531C49.7127 53.626 49.4348 54.2287 49.0773 54.6379Z" fill="#E6E6E6"/>
<path d="M43.5918 54.5251C43.5933 54.527 43.593 54.5286 43.5947 54.5306C43.6844 54.6504 44.9406 56.3918 45.2071 57.8019C45.4865 59.2628 47.2378 60.915 47.2377 60.9155C47.2414 60.9162 47.8172 58.8065 47.2005 57.7266C46.4698 56.4251 43.6805 54.5806 43.5918 54.5251Z" fill="#929292"/>
<path d="M43.9578 55.7111C44.0685 56.671 44.0532 57.4843 44.3087 58.5631C44.4578 59.1923 45.7106 60.4025 46.5883 60.7413C46.9244 60.925 47.2376 60.9157 47.2376 60.9157C47.2378 60.9152 45.4865 59.263 45.2069 57.802C44.9404 56.3917 43.6844 54.6508 43.5945 54.5308C43.6268 54.6048 43.8991 55.2105 43.9578 55.7111Z" fill="#E6E6E6"/>
<path d="M49.8187 59.2175C49.8174 59.2196 49.8157 59.2204 49.8146 59.2225C49.7434 59.3505 48.6457 61.1707 47.3295 62.1502C45.9748 63.1672 45.2012 65.2839 45.1978 65.2836C45.1981 65.284 47.7067 64.4636 48.4952 63.4437C49.4591 62.2196 49.8168 59.3088 49.8187 59.2175Z" fill="#929292"/>
<path d="M48.8002 60.1298C47.8714 60.7447 47.0242 61.1961 46.0501 61.9831C45.4836 62.4425 44.9129 63.9726 45.0307 64.7513C45.0205 65.0807 45.1976 65.2836 45.1977 65.2836C45.2012 65.284 45.9749 63.1673 47.3295 62.1502C48.6456 61.1708 49.7432 59.3504 49.8146 59.2225C49.7561 59.2855 49.2842 59.8086 48.8002 60.1298Z" fill="#E6E6E6"/>
<path d="M43.5154 58.908C43.5162 58.9102 43.5155 58.9116 43.5162 58.9139C43.565 59.0478 44.2077 60.9807 43.9951 62.3973C43.7801 63.8653 44.9143 65.8164 44.913 65.817C44.9162 65.818 46.1832 63.8937 45.948 62.727C45.6791 61.3221 43.5845 58.9792 43.5154 58.908Z" fill="#929292"/>
<path d="M43.4789 60.1263C43.2689 61.075 42.9851 61.8579 42.8735 62.9524C42.8093 63.591 43.6142 65.0134 44.3457 65.5177C44.6078 65.7631 44.913 65.817 44.913 65.817C44.9143 65.8166 43.7802 63.8652 43.9951 62.3973C44.2077 60.9806 43.565 59.0478 43.5162 58.9139C43.5228 58.9918 43.588 59.6313 43.4789 60.1263Z" fill="#E6E6E6"/>
<path d="M48.4533 64.0338C48.4519 64.0359 48.4503 64.0366 48.4487 64.0386C48.3673 64.1636 47.124 65.9383 45.7281 66.8688C44.2907 67.8354 43.3502 69.9173 43.3469 69.9169C43.3471 69.9175 45.925 69.1852 46.7955 68.1967C47.8583 67.0107 48.4444 64.1246 48.4533 64.0338Z" fill="#929292"/>
<path d="M47.3609 64.9072C46.3814 65.4878 45.4968 65.9081 44.4589 66.6588C43.8551 67.0969 43.1642 68.6015 43.2215 69.381C43.1857 69.7087 43.3473 69.9169 43.3473 69.9169C43.3508 69.9172 44.2909 67.8354 45.7284 66.8688C47.1243 65.9382 48.3677 64.1636 48.4491 64.0386C48.386 64.0994 47.8714 64.604 47.3609 64.9072Z" fill="#E6E6E6"/>
<path d="M42.1553 63.5103C42.1558 63.5124 42.1552 63.5139 42.1557 63.5161C42.1942 63.651 42.6895 65.598 42.3663 67.0015C42.0375 68.4564 43.0213 70.438 43.0201 70.4385C43.0233 70.4395 44.443 68.5661 44.2983 67.3962C44.1387 65.988 42.2192 63.5835 42.1553 63.5103Z" fill="#929292"/>
<path d="M42.0243 64.7223C41.7403 65.6601 41.3954 66.4302 41.1988 67.5164C41.0849 68.1502 41.7811 69.5943 42.4747 70.1212C42.7185 70.3746 43.0198 70.4385 43.0198 70.4385C43.021 70.4379 42.0372 68.4564 42.3659 67.0015C42.6892 65.5979 42.1938 63.6511 42.1553 63.5161C42.1561 63.5939 42.1716 64.233 42.0243 64.7223Z" fill="#E6E6E6"/>
<path d="M45.7044 69.3159C45.7025 69.3177 45.7004 69.3178 45.6984 69.3196C45.5741 69.4215 43.7276 70.8571 42.0564 71.4508C40.332 72.069 38.6684 73.8823 38.6648 73.8814C38.6648 73.8814 41.3761 73.7326 42.5727 72.9684C44.0248 72.0535 45.6627 69.4006 45.7044 69.3159Z" fill="#929292"/>
<path d="M44.3383 69.9162C43.1901 70.26 42.193 70.4714 40.929 70.9698C40.1932 71.2607 38.9807 72.5667 38.745 73.3349C38.5889 73.6445 38.6646 73.8815 38.6646 73.8815C38.668 73.8824 40.3316 72.0691 42.0562 71.4509C43.7277 70.8571 45.5737 69.4215 45.6982 69.3197C45.6152 69.3641 44.937 69.7364 44.3383 69.9162Z" fill="#E6E6E6"/>
<path d="M41.2766 74.0646C41.274 74.066 41.2724 74.066 41.2698 74.0673C41.1226 74.1504 38.9632 75.3125 37.1862 75.6715C35.3508 76.0463 33.2845 77.6152 33.2815 77.6141C33.2815 77.6141 35.9589 77.833 37.315 77.2411C38.9572 76.5338 41.2146 74.1419 41.2766 74.0646Z" fill="#929292"/>
<path d="M39.7937 74.4689C38.587 74.6504 37.5609 74.7225 36.2049 75.0427C35.4149 75.2296 33.9126 76.356 33.4946 77.0843C33.2664 77.3695 33.282 77.6142 33.282 77.6142C33.2848 77.6152 35.3513 76.0463 37.1867 75.6716C38.9636 75.3125 41.1231 74.1505 41.2702 74.0674C41.178 74.0999 40.4229 74.3736 39.7937 74.4689Z" fill="#E6E6E6"/>
<path d="M39.8976 67.4232C39.8976 67.4255 39.8961 67.4267 39.896 67.429C39.884 67.5678 39.6415 69.5559 38.8159 70.8442C37.9687 72.1804 38.1631 74.316 38.1606 74.316C38.1623 74.3171 40.205 72.81 40.5028 71.6475C40.8772 70.2503 39.9338 67.5078 39.8976 67.4232Z" fill="#929292"/>
<path d="M39.3295 68.5654C38.7154 69.4095 38.1052 70.0793 37.519 71.0888C37.1784 71.6778 37.3044 73.2288 37.7635 73.8902C37.8996 74.1887 38.1605 74.3161 38.1605 74.3161C38.1629 74.316 37.9686 72.1804 38.8158 70.8443C39.6415 69.5559 39.8839 67.5677 39.8959 67.429C39.8685 67.5044 39.6493 68.1248 39.3295 68.5654Z" fill="#E6E6E6"/>
<path d="M36.3218 71.8282C36.3214 71.8301 36.3194 71.8309 36.3191 71.8329C36.278 71.9509 35.6292 73.637 34.6406 74.6497C33.6231 75.7007 33.3199 77.5755 33.3174 77.5753C33.3182 77.5759 35.3892 76.5205 35.9015 75.5528C36.5307 74.3903 36.3346 71.9057 36.3218 71.8282Z" fill="#929292"/>
<path d="M35.5827 72.7435C34.8712 73.3964 34.2022 73.9 33.4802 74.7015C33.0601 75.1691 32.8273 76.5281 33.0728 77.1576C33.1231 77.433 33.3172 77.5752 33.3172 77.5752C33.3194 77.5755 33.6228 75.7005 34.6402 74.6496C35.6287 73.637 36.2777 71.951 36.3188 71.8329C36.2784 71.8944 35.9533 72.4026 35.5827 72.7435Z" fill="#E6E6E6"/>
<path d="M32.3525 78.1069C32.3525 79.1536 30.3547 80.0022 27.8903 80.0022C25.4257 80.0022 23.428 79.1536 23.428 78.1069C23.428 77.0602 25.4257 76.2116 27.8903 76.2116C30.3547 76.2117 32.3525 77.0602 32.3525 78.1069Z" fill="#929292"/>
<path d="M27.8905 79.6707C25.458 79.6707 23.7627 78.8465 23.7627 78.1068C23.7627 77.3672 25.4579 76.5429 27.8905 76.5429C30.3232 76.5429 32.0184 77.3672 32.0184 78.1068C32.0184 78.8465 30.3232 79.6707 27.8905 79.6707Z" fill="#E6E6E6"/>
<path d="M18.7109 68.0766V62.8734L19.2029 62.5205C23.8673 59.1755 28.635 55.4011 28.635 52.764C28.635 52.3225 28.635 50.9784 26.3841 50.9784C24.9279 50.9784 23.1266 51.6053 21.5652 52.6547L21.2626 52.8578H19.258V46.3025L19.9719 45.994C21.9689 45.1304 24.7669 44.5946 27.2746 44.5946C33.0705 44.5946 36.5308 47.3784 36.5308 52.041C36.5308 55.998 33.7385 59.1174 30.4648 61.7537H37.4997V68.0766H18.7109Z" fill="#929292"/>
<path d="M36.3101 66.8975H19.9004V63.4756C25.5214 59.4443 29.8246 55.8174 29.8246 52.7643C29.8246 49.0466 24.899 48.9898 20.8971 51.6791H20.4479V47.0745C24.6978 45.2369 35.3413 44.216 35.3413 52.0408C35.3413 56.4449 31.19 59.8948 26.919 62.9328H36.31L36.3101 66.8975Z" fill="#EAEAEA"/>
</svg>
