<svg width="56" height="86" viewBox="0 0 56 86" fill="none" xmlns="http://www.w3.org/2000/svg">
<path d="M45.2717 -6.10352e-05L35.5632 26.8669H30.1687L39.8488 0.0218826V-6.10352e-05H45.2717Z" fill="#9871F3"/>
<path d="M39.849 -6.10352e-05V0.0218826L30.1689 26.8669H24.8423L34.5223 0.0218826V-6.10352e-05H39.849Z" fill="#F0F0F0"/>
<path d="M34.522 0V0.0219437L24.8419 26.867H19.4001L29.1086 0H34.522Z" fill="#6F9DE2"/>
<path d="M39.3552 27.267C40.0682 28.8427 40.464 30.5387 40.5272 32.2596C36.7116 30.3277 32.3881 29.2381 27.8092 29.2381C22.9746 29.2381 18.4272 30.4527 14.4602 32.5879C14.4807 30.7543 14.8829 28.9427 15.6401 27.267L15.9934 26.487C16.3877 25.6132 17.208 25.002 18.1654 24.8692L19.208 24.7238C24.7066 23.961 30.2888 23.961 35.7889 24.7238L36.83 24.8692C37.7874 25.0021 38.6076 25.6132 39.002 26.487L39.3552 27.267ZM36.5491 28.0345V27.0091C36.5491 26.7121 36.3061 26.4714 36.0065 26.4714H18.9887C18.689 26.4714 18.4461 26.7122 18.4461 27.0091V28.0345C18.4461 28.333 18.689 28.5738 18.9887 28.5738H36.0065C36.3062 28.5738 36.5491 28.3331 36.5491 28.0345Z" fill="#FDBC62"/>
<path d="M9.69043 0L19.3989 26.867H24.7933L15.1133 0.0219437V0H9.69043Z" fill="#6F9DE2"/>
<path d="M15.1143 0V0.0219437L24.7943 26.867H30.121L20.4409 0.0219437V0H15.1143Z" fill="#F0F0F0"/>
<path d="M20.4404 0V0.0219437L30.1206 26.867H35.5624L25.8539 0H20.4404Z" fill="#9871F3"/>
<path d="M40.7172 32.2597C49.7885 36.849 56 46.198 56 56.9851C56 72.3099 43.4633 84.7336 27.9993 84.7336C12.5351 84.7336 0 72.31 0 56.9851C0 46.4512 5.92291 37.2882 14.6503 32.5879C18.6173 30.4527 23.1647 29.2381 27.9993 29.2381C32.5782 29.2381 36.9017 30.3276 40.7172 32.2597Z" fill="#EDAC55"/>
<path d="M27.9992 82.5224C21.1161 82.5224 14.6453 79.866 9.77849 75.0426C4.91167 70.2193 2.23145 63.8064 2.23145 56.9852C2.23145 47.6145 7.39803 39.0109 15.7149 34.5317C19.4609 32.5154 23.7088 31.4496 27.9992 31.4496C32.1221 31.4496 36.0597 32.3849 39.7028 34.2296C43.8692 36.3375 47.3839 39.5325 49.8674 43.4696C52.4195 47.5156 53.7685 52.1892 53.7685 56.9853C53.7685 63.8064 51.088 70.2193 46.2208 75.0427C41.3535 79.8661 34.8823 82.5224 27.9992 82.5224Z" fill="#FDBC62"/>
<path d="M23.425 32.7098C23.4227 32.7115 23.4228 32.7132 23.4207 32.7149C23.3002 32.8219 21.5926 34.3782 20.9227 35.7321C20.2266 37.1346 18.0633 38.5404 18.0631 38.5409C18.0593 38.5412 18.1344 36.3939 19.0419 35.4087C20.1244 34.2201 23.3247 32.7536 23.425 32.7098Z" fill="#C49047"/>
<path d="M22.7288 33.8308C22.3423 34.7612 22.118 35.5633 21.5568 36.5926C21.2296 37.193 19.6749 38.227 18.7353 38.4503C18.3597 38.5889 18.063 38.5405 18.063 38.5405C18.0633 38.54 20.2264 37.1343 20.9225 35.7318C21.5924 34.3777 23.2998 32.8215 23.4206 32.7145C23.3683 32.7834 22.9313 33.3456 22.7288 33.8308Z" fill="#FFDEAE"/>
<path d="M25.9624 37.1516C25.9596 37.1519 25.9581 37.1531 25.9554 37.1534C25.7862 37.1763 23.356 37.5231 21.807 38.2527C20.2018 39.0101 17.5474 38.959 17.5474 38.9585C17.5452 38.958 19.3214 37.2762 20.7399 36.9705C22.4438 36.5999 25.8551 37.1348 25.9624 37.1516Z" fill="#C49047"/>
<path d="M24.5882 37.689C23.5815 38.2365 22.7886 38.765 21.5729 39.2909C20.8638 39.5983 18.935 39.5851 18.0935 39.2521C17.7168 39.1587 17.5474 38.9584 17.5474 38.9584C17.5474 38.9588 20.202 39.01 21.807 38.2526C23.3558 37.5229 25.7862 37.1762 25.9554 37.1533C25.8644 37.1814 25.1136 37.4041 24.5882 37.689Z" fill="#FFDEAE"/>
<path d="M18.1908 35.7625C18.1891 35.7644 18.1893 35.766 18.1875 35.7679C18.0869 35.8874 16.6769 37.6215 16.2722 39.0311C15.8498 40.491 13.9639 42.1373 13.9641 42.1378C13.9602 42.1383 13.6076 40.0239 14.3228 38.9468C15.172 37.6484 18.0979 35.8175 18.1908 35.7625Z" fill="#C49047"/>
<path d="M17.7103 36.9462C17.5043 37.9051 17.4365 38.7186 17.0764 39.7967C16.8659 40.4256 15.5139 41.6313 14.6184 41.9664C14.2697 42.1489 13.9634 42.138 13.9634 42.138C13.9631 42.1375 15.8493 40.4912 16.2715 39.0313C16.676 37.6218 18.0863 35.8877 18.1868 35.7682C18.1477 35.842 17.8185 36.4462 17.7103 36.9462Z" fill="#FFDEAE"/>
<path d="M21.5986 39.8043C21.5961 39.8049 21.5946 39.8063 21.592 39.8069C21.4272 39.8499 19.0618 40.4872 17.6551 41.3937C16.1984 42.3338 13.5332 42.6118 13.5327 42.6116C13.53 42.6111 14.9734 40.7422 16.3347 40.2675C17.9688 39.6933 21.4889 39.8004 21.5986 39.8043Z" fill="#C49047"/>
<path d="M20.3277 40.4998C19.4271 41.1602 18.7372 41.776 17.6251 42.4415C16.9769 42.8301 15.046 43.0546 14.1376 42.8321C13.7424 42.787 13.5327 42.6116 13.5327 42.6116C13.5333 42.6119 16.1985 42.3339 17.6551 41.3938C19.0617 40.4874 21.4272 39.85 21.592 39.807C21.5063 39.8458 20.7982 40.1557 20.3277 40.4998Z" fill="#FFDEAE"/>
<path d="M13.3037 39.6295C13.3024 39.6317 13.3031 39.6332 13.302 39.6354C13.2376 39.7691 12.3673 41.701 12.3995 43.1296C12.4273 44.6093 11.0746 46.5554 11.0758 46.556C11.0724 46.5568 10.0704 44.5992 10.4457 43.4296C10.8833 42.0206 13.227 39.6999 13.3037 39.6295Z" fill="#C49047"/>
<path d="M13.1873 40.8544C13.275 41.8115 13.4554 42.6032 13.4288 43.7061C13.4123 44.3494 12.4476 45.768 11.6683 46.2639C11.381 46.5068 11.0754 46.5561 11.0754 46.5561C11.0746 46.5555 12.4271 44.6094 12.3993 43.1297C12.367 41.7011 13.2374 39.7692 13.3017 39.6355C13.2856 39.7137 13.1423 40.3552 13.1873 40.8544Z" fill="#FFDEAE"/>
<path d="M17.896 42.8384C17.8935 42.8395 17.8926 42.8411 17.8902 42.8422C17.7403 42.915 15.5958 43.9827 14.4853 45.125C13.3354 46.3088 10.7962 47.0943 10.7962 47.0943C10.7921 47.0943 11.6377 45.0208 12.838 44.3016C14.2765 43.4328 17.7869 42.8552 17.896 42.8384Z" fill="#C49047"/>
<path d="M16.8503 43.7508C16.161 44.5582 15.6676 45.2827 14.7749 46.1366C14.2547 46.635 12.4229 47.2248 11.4592 47.1882C11.056 47.2218 10.795 47.0946 10.7952 47.0945C10.7959 47.0944 13.335 46.309 14.4849 45.1252C15.5953 43.9828 17.7399 42.9152 17.8898 42.8424C17.8168 42.896 17.2108 43.3299 16.8503 43.7508Z" fill="#FFDEAE"/>
<path d="M9.77186 43.9565C9.77101 43.9588 9.77209 43.9602 9.77116 43.9625C9.72765 44.1004 9.16287 46.0908 9.42478 47.4999C9.68925 48.9599 8.64972 51.0126 8.65104 51.0131C8.64802 51.014 7.32862 49.1722 7.51543 47.9811C7.72571 46.547 9.70566 44.0331 9.77186 43.9565Z" fill="#C49047"/>
<path d="M9.85027 45.1773C10.0912 46.1145 10.3983 46.88 10.5479 47.973C10.6343 48.6106 9.89572 50.1046 9.19638 50.6686C8.94801 50.9359 8.65064 51.0135 8.65064 51.0135C8.64901 51.0129 9.68862 48.9601 9.4243 47.5001C9.16239 46.091 9.7274 44.1007 9.77068 43.9627C9.76681 44.0413 9.72539 44.6884 9.85027 45.1773Z" fill="#FFDEAE"/>
<path d="M14.8837 46.6962C14.8813 46.6976 14.881 46.6993 14.8786 46.7006C14.7397 46.7865 12.7606 48.0429 11.832 49.2773C10.8699 50.5561 8.4579 51.572 8.45705 51.5723C8.45334 51.5724 8.96392 49.4416 10.0512 48.6175C11.3522 47.6227 14.7771 46.7229 14.8837 46.6962Z" fill="#C49047"/>
<path d="M13.9809 47.6965C13.4184 48.5597 13.04 49.3224 12.2833 50.251C11.8424 50.793 10.1055 51.5481 9.13607 51.6027C8.73829 51.6739 8.45679 51.5726 8.45679 51.5726C8.45756 51.5723 10.8696 50.5564 11.8317 49.2776C12.7601 48.0432 14.7394 46.7868 14.8783 46.7009C14.8136 46.7606 14.2749 47.2464 13.9809 47.6965Z" fill="#FFDEAE"/>
<path d="M7.09172 48.6792C7.0918 48.6815 7.09281 48.6827 7.09257 48.6851C7.08421 48.8259 7.0311 50.8505 7.65093 52.1825C8.2847 53.5634 7.78448 55.7289 7.78665 55.7293C7.78471 55.7302 6.00605 54.14 5.88419 52.9509C5.72169 51.5204 7.04395 48.7637 7.09172 48.6792Z" fill="#C49047"/>
<path d="M7.48018 49.8544C7.95771 50.7285 8.45669 51.4258 8.8832 52.4678C9.13063 53.0756 8.78193 54.6481 8.2365 55.3077C8.05998 55.6073 7.78615 55.7294 7.78615 55.7294C7.78383 55.7291 8.28427 53.5635 7.65043 52.1826C7.03052 50.8505 7.08379 48.826 7.09207 48.6852C7.10794 48.7624 7.23174 49.3981 7.48018 49.8544Z" fill="#FFDEAE"/>
<path d="M12.853 50.5477C12.851 50.5493 12.851 50.551 12.8489 50.5527C12.7328 50.6578 11.0893 52.1902 10.4858 53.5391C9.85935 54.9364 7.7405 56.3042 7.74003 56.3047C7.73616 56.3052 7.69164 54.1463 8.55721 53.1732C9.58915 51.9996 12.7539 50.5898 12.853 50.5477Z" fill="#C49047"/>
<path d="M12.2105 51.663C11.8715 52.5923 11.69 53.3953 11.1788 54.4194C10.8805 55.0168 9.35976 56.0239 8.41755 56.2285C8.04384 56.36 7.73927 56.3049 7.7395 56.3049C7.73973 56.3045 9.85874 54.9367 10.4853 53.5393C11.0886 52.1904 12.7322 50.6582 12.8484 50.5529C12.7994 50.6212 12.3881 51.1785 12.2105 51.663Z" fill="#FFDEAE"/>
<path d="M5.56956 53.5474C5.57003 53.5497 5.5715 53.5508 5.57181 53.553C5.59743 53.6917 6.04059 55.6776 6.97978 56.8899C7.94382 58.1475 7.9816 60.344 7.98462 60.344C7.98346 60.3449 5.83713 59.0481 5.42277 57.903C4.90808 56.5267 5.54177 53.6369 5.56956 53.5474Z" fill="#C49047"/>
<path d="M6.24251 54.6377C6.92884 55.4217 7.5928 56.0298 8.26837 56.9871C8.66105 57.5457 8.70108 59.1376 8.32559 59.8643C8.22494 60.1839 7.9854 60.3439 7.9854 60.3439C7.98238 60.3438 7.94445 58.1474 6.98048 56.8898C6.04137 55.6775 5.59814 53.6916 5.57251 53.5529C5.60719 53.6258 5.88506 54.2285 6.24251 54.6377Z" fill="#FFDEAE"/>
<path d="M11.725 54.5252C11.7234 54.5271 11.7237 54.5287 11.7221 54.5307C11.6324 54.6505 10.3762 56.3918 10.1096 57.802C9.83026 59.2629 8.07893 60.9151 8.07908 60.9156C8.07529 60.9163 7.49959 58.8066 8.11624 57.7267C8.84686 56.4252 11.6362 54.5806 11.725 54.5252Z" fill="#C49047"/>
<path d="M11.3583 55.7114C11.2476 56.6712 11.2628 57.4846 11.0073 58.5634C10.8582 59.1926 9.60534 60.4027 8.7277 60.7415C8.39162 60.9254 8.07837 60.9159 8.07837 60.9159C8.07814 60.9155 9.82947 59.2632 10.109 57.8024C10.3756 56.392 11.6316 54.651 11.7215 54.531C11.6893 54.6051 11.4169 55.2108 11.3583 55.7114Z" fill="#FFDEAE"/>
<path d="M5.49902 59.2176C5.50034 59.2197 5.50196 59.2205 5.50313 59.2226C5.57443 59.3506 6.67202 61.1709 7.98818 62.1503C9.34296 63.1672 10.1165 65.284 10.12 65.2836C10.1196 65.2841 7.61098 64.4636 6.82245 63.4437C5.85849 62.2197 5.50088 59.3089 5.49902 59.2176Z" fill="#C49047"/>
<path d="M6.51754 60.1299C7.44628 60.7447 8.29357 61.1961 9.2676 61.9832C9.83416 62.4426 10.4049 63.9727 10.287 64.7514C10.2973 65.0808 10.1202 65.2837 10.1202 65.2837C10.1165 65.2841 9.34278 63.1674 7.98822 62.1503C6.67207 61.1709 5.57448 59.3505 5.50317 59.2226C5.56155 59.2856 6.03358 59.8087 6.51754 60.1299Z" fill="#FFDEAE"/>
<path d="M11.8029 58.9083C11.8021 58.9106 11.8027 58.9119 11.8019 58.9142C11.7532 59.0482 11.1105 60.9812 11.3231 62.3977C11.5381 63.8656 10.4039 65.8168 10.4052 65.8173C10.4019 65.8183 9.13504 63.8942 9.37016 62.7274C9.63905 61.3225 11.7337 58.9796 11.8029 58.9083Z" fill="#C49047"/>
<path d="M11.8389 60.1265C12.0489 61.0752 12.3327 61.8581 12.4443 62.9527C12.5085 63.5912 11.7037 65.0137 10.972 65.5179C10.7098 65.7633 10.4048 65.8172 10.4048 65.8172C10.4035 65.8168 11.5375 63.8654 11.3228 62.3976C11.1102 60.9809 11.7528 59.048 11.8016 58.9141C11.795 58.992 11.7298 59.6315 11.8389 60.1265Z" fill="#FFDEAE"/>
<path d="M6.86426 64.0336C6.86565 64.0357 6.86728 64.0365 6.86875 64.0385C6.95027 64.1634 8.19349 65.9381 9.58939 66.8686C11.0268 67.8352 11.9673 69.9172 11.9705 69.9167C11.9704 69.9173 9.39251 69.185 8.52199 68.1965C7.45931 67.0105 6.87324 64.1245 6.86426 64.0336Z" fill="#C49047"/>
<path d="M7.95647 64.9071C8.93592 65.4876 9.82052 65.9079 10.8583 66.6587C11.4622 67.0968 12.1531 68.6015 12.0958 69.3809C12.1316 69.7087 11.97 69.9167 11.97 69.9167C11.9665 69.9171 11.0264 67.8352 9.58881 66.8687C8.19283 65.9381 6.94953 64.1635 6.86816 64.0385C6.93142 64.0992 7.44595 64.6038 7.95647 64.9071Z" fill="#FFDEAE"/>
<path d="M13.1634 63.5103C13.1629 63.5124 13.1636 63.5139 13.163 63.5162C13.1245 63.651 12.6292 65.598 12.9524 67.0015C13.2811 68.4564 12.2974 70.438 12.2986 70.4385C12.2954 70.4395 10.8757 68.5661 11.0204 67.3962C11.1801 65.988 13.0995 63.5835 13.1634 63.5103Z" fill="#C49047"/>
<path d="M13.2945 64.7223C13.5786 65.6601 13.9235 66.4301 14.1201 67.5164C14.2339 68.1502 13.5378 69.5943 12.8442 70.1211C12.6004 70.3746 12.2991 70.4385 12.2991 70.4385C12.2979 70.4379 13.2817 68.4564 12.953 67.0015C12.6297 65.5979 13.1252 63.6511 13.1636 63.5161C13.1627 63.594 13.1472 64.2329 13.2945 64.7223Z" fill="#FFDEAE"/>
<path d="M9.61377 69.3159C9.61578 69.3177 9.61787 69.3178 9.61989 69.3196C9.74415 69.4215 11.5906 70.857 13.2618 71.4508C14.9863 72.0689 16.6498 73.8822 16.6534 73.8814C16.6539 73.8815 13.942 73.7325 12.7455 72.9684C11.2933 72.0534 9.65542 69.4007 9.61377 69.3159Z" fill="#C49047"/>
<path d="M10.9795 69.9163C12.1276 70.2601 13.1248 70.4715 14.3887 70.9699C15.1246 71.2608 16.337 72.5668 16.5727 73.3349C16.7289 73.6447 16.6531 73.8817 16.6531 73.8817C16.6497 73.8825 14.986 72.0692 13.2615 71.451C11.59 70.8572 9.74404 69.4216 9.61963 69.3198C9.70255 69.3642 10.3808 69.7365 10.9795 69.9163Z" fill="#FFDEAE"/>
<path d="M14.0422 74.0648C14.0447 74.0663 14.0464 74.0661 14.0491 74.0675C14.1962 74.1506 16.3556 75.3126 18.1326 75.6716C19.968 76.0464 22.0343 77.6153 22.0373 77.6143C22.0373 77.6143 19.3598 77.8332 18.0037 77.2413C16.3617 76.534 14.1042 74.1421 14.0422 74.0648Z" fill="#C49047"/>
<path d="M15.5247 74.4689C16.7313 74.6505 17.7574 74.7226 19.1134 75.0427C19.9033 75.2297 21.4057 76.3561 21.8237 77.0843C22.0519 77.3695 22.0364 77.6143 22.0364 77.6143C22.0335 77.6153 19.967 76.0464 18.1317 75.6716C16.3548 75.3126 14.1951 74.1505 14.0481 74.0675C14.1403 74.1 14.8952 74.3736 15.5247 74.4689Z" fill="#FFDEAE"/>
<path d="M15.4199 67.4238C15.42 67.4261 15.4214 67.4273 15.4216 67.4296C15.4335 67.5683 15.676 69.5564 16.5016 70.8448C17.3488 72.1809 17.1544 74.3165 17.1569 74.3166C17.1553 74.3176 15.1126 72.8105 14.8147 71.6481C14.4403 70.2508 15.3838 67.5084 15.4199 67.4238Z" fill="#C49047"/>
<path d="M15.9886 68.5658C16.6028 69.41 17.2129 70.0797 17.7993 71.0892C18.1398 71.6782 18.0139 73.2292 17.5548 73.8906C17.4187 74.1892 17.1577 74.3166 17.1577 74.3166C17.1553 74.3164 17.3497 72.1808 16.5024 70.8447C15.6768 69.5563 15.4344 67.5681 15.4224 67.4295C15.4497 67.5048 15.6688 68.1252 15.9886 68.5658Z" fill="#FFDEAE"/>
<path d="M18.9972 71.8286C18.9977 71.8305 18.9997 71.8313 18.9999 71.8333C19.041 71.9513 19.6898 73.6374 20.6784 74.6501C21.6959 75.7011 21.9992 77.5759 22.0016 77.5757C22.0007 77.5763 19.9299 76.5209 19.4174 75.5532C18.7885 74.3907 18.9846 71.9061 18.9972 71.8286Z" fill="#C49047"/>
<path d="M19.7364 72.7442C20.4479 73.3971 21.1168 73.9006 21.8388 74.7021C22.2588 75.1697 22.4918 76.5287 22.2463 77.1582C22.1959 77.4336 22.0018 77.5758 22.0018 77.5758C21.9996 77.576 21.6963 75.7011 20.6787 74.6502C19.6903 73.6375 19.0414 71.9515 19.0002 71.8335C19.0405 71.895 19.3657 72.4032 19.7364 72.7442Z" fill="#FFDEAE"/>
<path d="M31.5613 32.7095C31.5635 32.7112 31.5634 32.7129 31.5655 32.7145C31.686 32.8215 33.3936 34.3778 34.0636 35.7318C34.7596 37.1343 36.9229 38.5401 36.9229 38.5401C36.9269 38.5408 36.8518 36.3935 35.9443 35.4084C34.8618 34.2198 31.6615 32.7533 31.5613 32.7095Z" fill="#C49047"/>
<path d="M32.2569 33.8311C32.6434 34.7615 32.8678 35.5636 33.4289 36.5929C33.7561 37.1933 35.3109 38.2273 36.2505 38.4506C36.626 38.5892 36.9228 38.5408 36.9228 38.5408C36.9228 38.5408 34.7593 37.1346 34.0632 35.7321C33.3933 34.378 31.6859 32.8218 31.5652 32.7148C31.6174 32.7837 32.0545 33.3459 32.2569 33.8311Z" fill="#FFDEAE"/>
<path d="M29.0232 37.1514C29.026 37.1518 29.0275 37.153 29.0302 37.1533C29.1993 37.1761 31.6295 37.5229 33.1786 38.2526C34.7838 39.01 37.4382 38.9589 37.4382 38.9584C37.4404 38.9579 35.6642 37.276 34.2456 36.9704C32.5418 36.5997 29.1304 37.1346 29.0232 37.1514Z" fill="#C49047"/>
<path d="M30.3962 37.689C31.4029 38.2365 32.1959 38.7649 33.4115 39.2908C34.1206 39.5982 36.0494 39.585 36.891 39.252C37.2675 39.1586 37.4371 38.9583 37.4371 38.9583C37.4371 38.9587 34.7825 39.0099 33.1775 38.2525C31.6286 37.5229 29.1982 37.1761 29.0291 37.1532C29.1201 37.1814 29.8708 37.404 30.3962 37.689Z" fill="#FFDEAE"/>
<path d="M36.793 35.763C36.7947 35.7649 36.7945 35.7665 36.7963 35.7684C36.8969 35.8879 38.3069 37.622 38.7116 39.0316C39.134 40.4915 41.0199 42.1379 41.0197 42.1383C41.0236 42.1389 41.3761 40.0244 40.661 38.9474C39.8118 37.6489 36.8859 35.818 36.793 35.763Z" fill="#C49047"/>
<path d="M37.2734 36.9465C37.4794 37.9053 37.5472 38.7188 37.9073 39.797C38.1177 40.4259 39.4697 41.6315 40.3653 41.9666C40.714 42.1491 41.0203 42.1382 41.0203 42.1382C41.0206 42.1377 39.1344 40.4914 38.7122 39.0316C38.3077 37.622 36.8974 35.8879 36.7969 35.7684C36.8359 35.8423 37.1651 36.4464 37.2734 36.9465Z" fill="#FFDEAE"/>
<path d="M33.3887 39.8047C33.3911 39.8053 33.3927 39.8067 33.3953 39.8073C33.5601 39.8503 35.9255 40.4876 37.3322 41.3941C38.7889 42.3342 41.4541 42.6122 41.4546 42.612C41.4572 42.6115 40.0139 40.7426 38.6527 40.268C37.0185 39.6938 33.4985 39.8008 33.3887 39.8047Z" fill="#C49047"/>
<path d="M34.6597 40.5001C35.5604 41.1605 36.2502 41.7763 37.3624 42.4418C38.0105 42.8304 39.9415 43.0549 40.8499 42.8324C41.245 42.7873 41.4548 42.6119 41.4548 42.6119C41.4542 42.6122 38.789 42.3342 37.3323 41.3941C35.9258 40.4877 33.5603 39.8504 33.3955 39.8073C33.4812 39.8461 34.1893 40.156 34.6597 40.5001Z" fill="#FFDEAE"/>
<path d="M41.6824 39.6291C41.6836 39.6313 41.6829 39.6328 41.684 39.635C41.7483 39.7686 42.6187 41.7006 42.5865 43.1291C42.5588 44.6089 43.9113 46.555 43.9102 46.5556C43.9136 46.5563 44.9155 44.5988 44.5403 43.4292C44.1026 42.0202 41.7589 39.6994 41.6824 39.6291Z" fill="#C49047"/>
<path d="M41.7996 40.854C41.7118 41.811 41.5314 42.6028 41.5581 43.7056C41.5745 44.349 42.5393 45.7676 43.3185 46.2634C43.6059 46.5063 43.9114 46.5557 43.9114 46.5557C43.9123 46.5551 42.5597 44.609 42.5875 43.1292C42.6199 41.7007 41.7495 39.7688 41.685 39.6351C41.7014 39.7133 41.8446 40.3548 41.7996 40.854Z" fill="#FFDEAE"/>
<path d="M37.0908 42.8377C37.0932 42.8389 37.0943 42.8404 37.0966 42.8415C37.2464 42.9144 39.3911 43.982 40.5014 45.1244C41.6514 46.3081 44.1906 47.0936 44.1911 47.0936C44.1947 47.0936 43.3491 45.0202 42.1488 44.3009C40.7102 43.4322 37.1999 42.8545 37.0908 42.8377Z" fill="#C49047"/>
<path d="M38.1371 43.75C38.8265 44.5574 39.3198 45.2819 40.2124 46.1358C40.7326 46.6342 42.5646 47.224 43.5281 47.1874C43.9313 47.221 44.1923 47.0938 44.1922 47.0937C44.1916 47.0936 41.6525 46.3082 40.5025 45.1244C39.3921 43.982 37.2475 42.9144 37.0977 42.8416C37.1707 42.8952 37.7766 43.3291 38.1371 43.75Z" fill="#FFDEAE"/>
<path d="M45.2163 43.9566C45.2172 43.9589 45.2161 43.9603 45.2169 43.9626C45.2604 44.1005 45.8253 46.091 45.5633 47.5C45.2988 48.96 46.3384 51.0128 46.3371 51.0132C46.3401 51.0141 47.6595 49.1723 47.4727 47.9812C47.2625 46.5471 45.2825 44.0333 45.2163 43.9566Z" fill="#C49047"/>
<path d="M45.1371 45.1777C44.8962 46.1149 44.5892 46.8804 44.4395 47.9734C44.3531 48.611 45.0917 50.105 45.791 50.669C46.0394 50.9363 46.3368 51.0138 46.3368 51.0138C46.3384 51.0133 45.2988 48.9605 45.5631 47.5005C45.8251 46.0914 45.26 44.1011 45.2168 43.9631C45.2206 44.0417 45.2621 44.6888 45.1371 45.1777Z" fill="#FFDEAE"/>
<path d="M40.1013 46.6966C40.1037 46.698 40.104 46.6997 40.1065 46.701C40.2453 46.7868 42.2245 48.0433 43.1531 49.2776C44.1152 50.5565 46.5272 51.5724 46.528 51.5727C46.5317 51.5727 46.0211 49.442 44.9338 48.6178C43.6329 47.623 40.2078 46.7233 40.1013 46.6966Z" fill="#C49047"/>
<path d="M41.0035 47.6966C41.566 48.5598 41.9444 49.3225 42.7011 50.2511C43.142 50.7931 44.8789 51.5482 45.8484 51.6028C46.2462 51.674 46.5278 51.5726 46.5278 51.5726C46.5269 51.5724 44.1148 50.5564 43.1528 49.2777C42.2244 48.0433 40.2451 46.7869 40.1062 46.701C40.1707 46.7607 40.7095 47.2465 41.0035 47.6966Z" fill="#FFDEAE"/>
<path d="M47.8918 48.679C47.8918 48.6813 47.8908 48.6826 47.891 48.685C47.8993 48.8257 47.9525 50.8504 47.3326 52.1824C46.6989 53.5633 47.1991 55.7288 47.1969 55.7291C47.1989 55.7301 48.9775 54.1399 49.0994 52.9508C49.2619 51.5203 47.9395 48.7636 47.8918 48.679Z" fill="#C49047"/>
<path d="M47.5034 49.8542C47.0258 50.7284 46.5269 51.4257 46.1004 52.4677C45.8528 53.0755 46.2015 54.648 46.7471 55.3076C46.9235 55.6072 47.1974 55.7293 47.1974 55.7293C47.1997 55.729 46.6993 53.5634 47.3331 52.1825C47.953 50.8504 47.8998 48.8259 47.8915 48.6851C47.8756 48.7622 47.7518 49.398 47.5034 49.8542Z" fill="#FFDEAE"/>
<path d="M42.1306 50.5476C42.1326 50.5492 42.1326 50.5509 42.1346 50.5526C42.2508 50.6578 43.8942 52.1902 44.4978 53.5391C45.1242 54.9364 47.2431 56.3042 47.2436 56.3046C47.2474 56.3052 47.2919 54.1463 46.4264 53.1732C45.3944 51.9995 42.2297 50.5898 42.1306 50.5476Z" fill="#C49047"/>
<path d="M42.7724 51.6626C43.1113 52.592 43.2928 53.3949 43.8041 54.419C44.1024 55.0164 45.6232 56.0236 46.5653 56.2281C46.9391 56.3596 47.2436 56.3045 47.2436 56.3045C47.2431 56.3042 45.1241 54.9363 44.4976 53.539C43.8943 52.19 42.2507 50.6578 42.1345 50.5525C42.1836 50.6208 42.5949 51.1781 42.7724 51.6626Z" fill="#FFDEAE"/>
<path d="M49.4156 53.5475C49.4151 53.5498 49.4136 53.5508 49.4133 53.5531C49.3877 53.6918 48.9445 55.6776 48.0053 56.89C47.0413 58.1476 47.0035 60.344 47.0005 60.3441C47.0016 60.3449 49.1479 59.0481 49.5623 57.903C50.077 56.5268 49.4433 53.6369 49.4156 53.5475Z" fill="#C49047"/>
<path d="M48.7433 54.6379C48.057 55.4219 47.3931 56.03 46.7175 56.9873C46.3248 57.5459 46.2848 59.1378 46.6603 59.8645C46.7609 60.1842 47.0004 60.3441 47.0004 60.3441C47.0035 60.3441 47.0413 58.1476 48.0054 56.89C48.9445 55.6777 49.3877 53.6918 49.4133 53.5531C49.3787 53.626 49.1008 54.2287 48.7433 54.6379Z" fill="#FFDEAE"/>
<path d="M43.2593 54.5249C43.2608 54.5268 43.2605 54.5284 43.2621 54.5304C43.3519 54.6503 44.6081 56.3916 44.8746 57.8017C45.154 59.2626 46.9053 60.9148 46.9052 60.9153C46.9089 60.916 47.4847 58.8063 46.868 57.7264C46.1373 56.4249 43.348 54.5804 43.2593 54.5249Z" fill="#C49047"/>
<path d="M43.6251 55.7105C43.7359 56.6703 43.7206 57.4837 43.9761 58.5625C44.1252 59.1917 45.3781 60.4018 46.2557 60.7406C46.5918 60.9245 46.905 60.915 46.905 60.915C46.9052 60.9146 45.1539 59.2623 44.8744 57.8014C44.6078 56.391 43.3518 54.6501 43.262 54.5301C43.2941 54.6042 43.5665 55.2099 43.6251 55.7105Z" fill="#FFDEAE"/>
<path d="M49.4852 59.2177C49.4839 59.2198 49.4822 59.2206 49.4811 59.2227C49.4099 59.3507 48.3122 61.171 46.996 62.1503C45.6412 63.1673 44.8677 65.2841 44.8643 65.2837C44.8646 65.2842 47.3732 64.4637 48.1617 63.4438C49.1257 62.2198 49.4833 59.309 49.4852 59.2177Z" fill="#C49047"/>
<path d="M48.4668 60.1299C47.538 60.7447 46.6907 61.1961 45.7167 61.9832C45.1501 62.4426 44.5794 63.9727 44.6972 64.7514C44.687 65.0808 44.8641 65.2837 44.8642 65.2837C44.8677 65.2841 45.6415 63.1674 46.996 62.1503C48.3122 61.1709 49.4097 59.3505 49.4811 59.2226C49.4227 59.2856 48.9508 59.8087 48.4668 60.1299Z" fill="#FFDEAE"/>
<path d="M43.1831 58.9081C43.1839 58.9103 43.1833 58.9117 43.184 58.914C43.2327 59.0479 43.8754 60.9809 43.6628 62.3975C43.4479 63.8654 44.582 65.8165 44.5807 65.8171C44.584 65.8181 45.8509 63.8939 45.6157 62.7271C45.3469 61.3223 43.2522 58.9794 43.1831 58.9081Z" fill="#C49047"/>
<path d="M43.1461 60.1265C42.9361 61.0752 42.6524 61.8581 42.5407 62.9527C42.4765 63.5912 43.2814 65.0137 44.0129 65.5179C44.2752 65.7633 44.5802 65.8172 44.5802 65.8172C44.5815 65.8168 43.4475 63.8654 43.6623 62.3976C43.8749 60.9809 43.2322 59.048 43.1835 58.9141C43.19 58.992 43.2552 59.6315 43.1461 60.1265Z" fill="#FFDEAE"/>
<path d="M48.1207 64.0335C48.1193 64.0356 48.1177 64.0363 48.1162 64.0383C48.0347 64.1632 46.7914 65.938 45.3956 66.8685C43.9582 67.8351 43.0177 69.917 43.0144 69.9166C43.0146 69.9172 45.5924 69.1849 46.463 68.1964C47.5257 67.0104 48.1117 64.1243 48.1207 64.0335Z" fill="#C49047"/>
<path d="M47.0281 64.907C46.0487 65.4875 45.164 65.9078 44.1261 66.6586C43.5223 67.0967 42.8314 68.6014 42.8887 69.3808C42.8529 69.7085 43.0146 69.9166 43.0146 69.9166C43.0181 69.917 43.9582 67.8351 45.3958 66.8686C46.7917 65.938 48.035 64.1634 48.1164 64.0384C48.0532 64.0991 47.5387 64.6037 47.0281 64.907Z" fill="#FFDEAE"/>
<path d="M41.821 63.5101C41.8216 63.5123 41.8209 63.5137 41.8214 63.516C41.86 63.6509 42.3553 65.5978 42.0321 67.0014C41.7034 68.4562 42.6871 70.4379 42.6858 70.4384C42.6891 70.4394 44.1087 68.566 43.964 67.3961C43.8044 65.9878 41.885 63.5834 41.821 63.5101Z" fill="#C49047"/>
<path d="M41.6913 64.7223C41.4073 65.6601 41.0624 66.4302 40.8658 67.5164C40.7519 68.1502 41.4481 69.5943 42.1417 70.1212C42.3855 70.3746 42.6868 70.4385 42.6868 70.4385C42.6879 70.438 41.7041 68.4564 42.0329 67.0015C42.3562 65.5979 41.8607 63.6511 41.8222 63.5161C41.8231 63.594 41.8386 64.233 41.6913 64.7223Z" fill="#FFDEAE"/>
<path d="M45.3724 69.3162C45.3705 69.318 45.3684 69.3181 45.3664 69.3199C45.2421 69.4218 43.3956 70.8573 41.7244 71.4511C39.9999 72.0692 38.3364 73.8825 38.3328 73.8817C38.3328 73.8817 41.0441 73.7328 42.2406 72.9687C43.6928 72.0538 45.3307 69.401 45.3724 69.3162Z" fill="#C49047"/>
<path d="M44.006 69.9166C42.8578 70.2604 41.8607 70.4718 40.5968 70.9702C39.8609 71.2611 38.6485 72.5671 38.4127 73.3353C38.2566 73.645 38.3323 73.882 38.3323 73.882C38.3357 73.8828 39.9993 72.0695 41.7239 71.4513C43.3954 70.8575 45.2414 69.4219 45.3659 69.3201C45.283 69.3645 44.6047 69.7368 44.006 69.9166Z" fill="#FFDEAE"/>
<path d="M40.9441 74.0647C40.9415 74.0662 40.9398 74.066 40.9372 74.0674C40.7901 74.1505 38.6306 75.3126 36.8537 75.6715C35.0183 76.0463 32.952 77.6153 32.949 77.6142C32.949 77.6142 35.6265 77.8331 36.9825 77.2412C38.6246 76.5339 40.8821 74.142 40.9441 74.0647Z" fill="#C49047"/>
<path d="M39.4609 74.4688C38.2542 74.6504 37.2282 74.7224 35.8721 75.0426C35.0821 75.2296 33.5799 76.3559 33.1619 77.0842C32.9336 77.3694 32.9492 77.6142 32.9492 77.6142C32.9521 77.6151 35.0186 76.0463 36.854 75.6715C38.6309 75.3124 40.7904 74.1504 40.9375 74.0674C40.8453 74.0999 40.0902 74.3735 39.4609 74.4688Z" fill="#FFDEAE"/>
<path d="M39.5659 67.4233C39.5659 67.4256 39.5644 67.4267 39.5642 67.429C39.5523 67.5677 39.3097 69.5559 38.4841 70.8442C37.6369 72.1803 37.8313 74.3159 37.8288 74.316C37.8305 74.3171 39.8732 72.8099 40.171 71.6475C40.5455 70.2503 39.6022 67.5078 39.5659 67.4233Z" fill="#C49047"/>
<path d="M38.9978 68.5654C38.3837 69.4097 37.7735 70.0794 37.1872 71.0889C36.8466 71.6779 36.9726 73.2289 37.4317 73.8903C37.5678 74.1889 37.8288 74.3162 37.8288 74.3162C37.8312 74.3161 37.6368 72.1805 38.484 70.8443C39.3097 69.556 39.5521 67.5678 39.5641 67.4292C39.5367 67.5044 39.3176 68.1249 38.9978 68.5654Z" fill="#FFDEAE"/>
<path d="M35.9908 71.8283C35.9903 71.8302 35.9884 71.831 35.9881 71.8331C35.9469 71.9511 35.2982 73.6371 34.3095 74.6498C33.2921 75.7008 32.9888 77.5756 32.9863 77.5754C32.9872 77.576 35.058 76.5206 35.5705 75.5529C36.1996 74.3904 36.0036 71.9058 35.9908 71.8283Z" fill="#C49047"/>
<path d="M35.2516 72.7439C34.5401 73.3968 33.8711 73.9003 33.1492 74.7018C32.7291 75.1694 32.4962 76.5284 32.7417 77.1579C32.792 77.4333 32.9861 77.5755 32.9861 77.5755C32.9884 77.5757 33.2918 75.7008 34.3092 74.6499C35.2977 73.6372 35.9466 71.9512 35.9877 71.8332C35.9475 71.8947 35.6223 72.4029 35.2516 72.7439Z" fill="#FFDEAE"/>
<path d="M19.7178 67.4633V61.6562H24.1023V52.9756H19.7178V47.4037H20.8325C21.4525 47.4037 22.0529 47.3671 22.6168 47.295C23.1107 47.2321 23.5139 47.128 23.8156 46.9855C24.1073 46.8465 24.3217 46.6762 24.45 46.4808C24.5856 46.2739 24.6669 45.9862 24.6912 45.6256L24.7606 44.5946H31.54V61.6562H35.8267V67.4633H19.7178Z" fill="#C49047"/>
<path d="M34.7134 66.3583H20.834V62.7606H25.2185V51.8706H20.834V48.5081C21.5042 48.5081 22.1465 48.469 22.7609 48.3904C23.3752 48.3123 23.8871 48.176 24.2969 47.9823C24.7807 47.7519 25.1438 47.4519 25.3859 47.0828C25.6279 46.714 25.7675 46.2525 25.8049 45.6991H30.4267V62.7606H34.7134V66.3583Z" fill="#FFDEAE"/>
<path d="M32.0183 78.107C32.0183 79.1537 30.0205 80.0023 27.556 80.0023C25.0916 80.0023 23.0938 79.1537 23.0938 78.107C23.0938 77.0603 25.0916 76.2117 27.556 76.2117C30.0205 76.2118 32.0183 77.0603 32.0183 78.107Z" fill="#C49047"/>
<path d="M27.5565 79.6707C25.1239 79.6707 23.4287 78.8465 23.4287 78.1068C23.4287 77.3672 25.1239 76.5429 27.5565 76.5429C29.9892 76.5429 31.6845 77.3672 31.6845 78.1068C31.6845 78.8465 29.9892 79.6707 27.5565 79.6707Z" fill="#FFDEAE"/>
</svg>
