<svg width="57" height="86" viewBox="0 0 57 86" fill="none" xmlns="http://www.w3.org/2000/svg">
<path d="M45.9376 0L36.2292 26.867H30.8347L40.5148 0.0219437V0H45.9376Z" fill="#9871F3"/>
<path d="M40.5146 0V0.0219437L30.8345 26.867H25.5078L35.1879 0.0219437V0H40.5146Z" fill="#F0F0F0"/>
<path d="M35.1883 0V0.0219437L25.5082 26.867H20.0664L29.7749 0H35.1883Z" fill="#6F9DE2"/>
<path d="M40.022 27.2671C40.7349 28.8428 41.1308 30.5387 41.194 32.2597C37.3784 30.3277 33.0549 29.2382 28.4759 29.2382C23.6414 29.2382 19.0939 30.4527 15.127 32.5879C15.1475 30.7544 15.5497 28.9427 16.3068 27.267L16.6602 26.4871C17.0545 25.6133 17.8748 25.0021 18.8322 24.8693L19.8748 24.7239C25.3733 23.9611 30.9555 23.9611 36.4557 24.7239L37.4967 24.8693C38.4542 25.0022 39.2744 25.6133 39.6688 26.4871L40.022 27.2671ZM37.2158 28.0346V27.0092C37.2158 26.7122 36.9729 26.4715 36.6733 26.4715H19.6554C19.3557 26.4715 19.1128 26.7122 19.1128 27.0092V28.0346C19.1128 28.3331 19.3557 28.5739 19.6554 28.5739H36.6733C36.9729 28.5739 37.2158 28.3332 37.2158 28.0346Z" fill="#F69C62"/>
<path d="M10.3564 0L20.0649 26.867H25.4594L15.7794 0.0219437V0H10.3564Z" fill="#6F9DE2"/>
<path d="M15.7793 0V0.0219437L25.4594 26.867H30.786L21.1059 0.0219437V0H15.7793Z" fill="#F0F0F0"/>
<path d="M21.1064 0V0.0219437L30.7865 26.867H36.2283L26.5199 0H21.1064Z" fill="#9871F3"/>
<path d="M41.3842 32.2597C50.4555 36.849 56.667 46.198 56.667 56.9851C56.667 72.3099 44.1303 84.7337 28.6663 84.7337C13.2021 84.7337 0.666992 72.31 0.666992 56.9851C0.666992 46.4512 6.58991 37.2882 15.3172 32.5879C19.2842 30.4527 23.8316 29.2382 28.6662 29.2382C33.2452 29.2382 37.5686 30.3276 41.3842 32.2597Z" fill="#E68A54"/>
<path d="M28.6662 82.5223C21.7831 82.5223 15.3123 79.8659 10.4455 75.0425C5.57866 70.2192 2.89844 63.8062 2.89844 56.9851C2.89844 47.6144 8.06503 39.0108 16.3819 34.5316C20.1279 32.5153 24.3758 31.4495 28.6662 31.4495C32.7891 31.4495 36.7267 32.3848 40.3698 34.2295C44.5362 36.3373 48.0509 39.5324 50.5345 43.4695C53.0865 47.5155 54.4355 52.1891 54.4355 56.9852C54.4355 63.8062 51.755 70.2192 46.8878 75.0426C42.0205 79.8659 35.5493 82.5223 28.6662 82.5223Z" fill="#F69C62"/>
<path d="M24.0915 32.7095C24.0892 32.7112 24.0893 32.7129 24.0872 32.7145C23.9667 32.8215 22.2591 34.3778 21.5891 35.7318C20.8931 37.1343 18.7299 38.5401 18.7296 38.5405C18.7258 38.5408 18.8009 36.3935 19.7084 35.4084C20.7909 34.2198 23.9912 32.7533 24.0915 32.7095Z" fill="#BC7546"/>
<path d="M23.3954 33.8308C23.0088 34.7613 22.7846 35.5634 22.2234 36.5926C21.8962 37.1931 20.3415 38.2271 19.4019 38.4503C19.0263 38.589 18.7295 38.5407 18.7295 38.5407C18.7299 38.54 20.893 37.1343 21.589 35.7318C22.2589 34.3778 23.9663 32.8216 24.0871 32.7146C24.035 32.7835 23.5979 33.3456 23.3954 33.8308Z" fill="#F9C8A9"/>
<path d="M26.6299 37.1515C26.6271 37.1519 26.6257 37.153 26.6229 37.1533C26.4537 37.1762 24.0235 37.523 22.4744 38.2526C20.8693 39.01 18.2148 38.9589 18.2148 38.9589C18.2127 38.9579 19.9889 37.2761 21.4074 36.9704C23.1112 36.5998 26.5226 37.1347 26.6299 37.1515Z" fill="#BC7546"/>
<path d="M25.2556 37.689C24.2489 38.2365 23.456 38.765 22.2403 39.2908C21.5312 39.5983 19.6025 39.5851 18.7609 39.252C18.3842 39.1586 18.2148 38.9585 18.2148 38.9585C18.2148 38.9585 20.8694 39.01 22.4745 38.2525C24.0233 37.5229 26.4537 37.1761 26.6229 37.1533C26.5318 37.1814 25.7809 37.4041 25.2556 37.689Z" fill="#F9C8A9"/>
<path d="M18.859 35.7625C18.8573 35.7644 18.8575 35.766 18.8557 35.768C18.755 35.8874 17.3451 37.6215 16.9404 39.0312C16.518 40.491 14.6321 42.1374 14.6322 42.1378C14.6284 42.1384 14.2759 40.0239 14.991 38.9469C15.8402 37.6484 18.766 35.8175 18.859 35.7625Z" fill="#BC7546"/>
<path d="M18.3788 36.9462C18.1728 37.9051 18.105 38.7186 17.7449 39.7967C17.5343 40.4256 16.1823 41.6312 15.2868 41.9664C14.9382 42.1489 14.6318 42.138 14.6318 42.138C14.6315 42.1375 16.5177 40.4912 16.94 39.0313C17.3444 37.6217 18.7547 35.8877 18.8553 35.7681C18.8163 35.842 18.487 36.4461 18.3788 36.9462Z" fill="#F9C8A9"/>
<path d="M22.2651 39.8043C22.2626 39.8049 22.2611 39.8063 22.2585 39.8069C22.0937 39.8499 19.7283 40.4872 18.3216 41.3937C16.8649 42.3338 14.1997 42.6118 14.1992 42.6116C14.1965 42.6111 15.6399 40.7422 17.0012 40.2675C18.6353 39.6933 22.1554 39.8004 22.2651 39.8043Z" fill="#BC7546"/>
<path d="M20.9942 40.4998C20.0936 41.1601 19.4037 41.7759 18.2916 42.4414C17.6434 42.83 15.7125 43.0546 14.8041 42.832C14.409 42.787 14.1992 42.6116 14.1992 42.6116C14.1998 42.6119 16.865 42.3338 18.3216 41.3937C19.7282 40.4873 22.0937 39.85 22.2585 39.8069C22.1728 39.8457 21.4647 40.1557 20.9942 40.4998Z" fill="#F9C8A9"/>
<path d="M13.9691 39.6292C13.9679 39.6314 13.9686 39.6329 13.9675 39.6351C13.9032 39.7688 13.0329 41.7007 13.065 43.1292C13.0928 44.609 11.7402 46.5551 11.7413 46.5557C11.7379 46.5565 10.7359 44.5989 11.1112 43.4293C11.5489 42.0203 13.8925 39.6996 13.9691 39.6292Z" fill="#BC7546"/>
<path d="M13.8529 40.854C13.9405 41.811 14.121 42.6027 14.0943 43.7056C14.0778 44.3489 13.1131 45.7675 12.3339 46.2634C12.0466 46.5063 11.741 46.5557 11.741 46.5557C11.7401 46.555 13.0927 44.609 13.0648 43.1292C13.0325 41.7007 13.9029 39.7687 13.9673 39.6351C13.951 39.7133 13.8078 40.3547 13.8529 40.854Z" fill="#F9C8A9"/>
<path d="M18.5606 42.8381C18.5581 42.8392 18.5571 42.8408 18.5548 42.8419C18.4049 42.9147 16.2603 43.9824 15.1499 45.1247C14 46.3085 11.4607 47.094 11.4607 47.094C11.4567 47.094 12.3023 45.0205 13.5026 44.3013C14.9411 43.4325 18.4515 42.8549 18.5606 42.8381Z" fill="#BC7546"/>
<path d="M17.5158 43.7503C16.8265 44.5578 16.3331 45.2822 15.4404 46.1361C14.9202 46.6345 13.0884 47.2243 12.1247 47.1877C11.7216 47.2213 11.4605 47.0941 11.4607 47.094C11.4614 47.0939 14.0005 46.3085 15.1504 45.1247C16.2609 43.9823 18.4054 42.9147 18.5553 42.8419C18.4822 42.8955 17.8762 43.3294 17.5158 43.7503Z" fill="#F9C8A9"/>
<path d="M10.4376 43.9567C10.4368 43.959 10.4379 43.9603 10.4369 43.9626C10.3934 44.1006 9.82864 46.091 10.0906 47.5C10.355 48.9601 9.3155 51.0128 9.31682 51.0133C9.3138 51.0142 7.99439 49.1724 8.1812 47.9813C8.39148 46.5471 10.3714 44.0333 10.4376 43.9567Z" fill="#BC7546"/>
<path d="M10.5161 45.1775C10.757 46.1147 11.0641 46.8802 11.2138 47.9732C11.3001 48.6108 10.5616 50.1048 9.86222 50.6688C9.61385 50.936 9.31641 51.0136 9.31641 51.0136C9.31478 51.0132 10.3545 48.9604 10.0901 47.5004C9.82815 46.0912 10.3932 44.101 10.4365 43.963C10.4327 44.0415 10.3912 44.6886 10.5161 45.1775Z" fill="#F9C8A9"/>
<path d="M15.5507 46.6965C15.5483 46.6979 15.548 46.6995 15.5455 46.7008C15.4067 46.7867 13.4276 48.0432 12.499 49.2774C11.5369 50.5563 9.1249 51.5722 9.12404 51.5725C9.12033 51.5726 9.63092 49.4419 10.7182 48.6177C12.0193 47.6229 15.4442 46.7232 15.5507 46.6965Z" fill="#BC7546"/>
<path d="M14.6482 47.6965C14.0857 48.5597 13.7073 49.3224 12.9506 50.2511C12.5097 50.793 10.7729 51.5481 9.80332 51.6028C9.40561 51.674 9.12402 51.5726 9.12402 51.5726C9.1248 51.5723 11.5368 50.5564 12.4989 49.2775C13.4274 48.0433 15.4066 46.7869 15.5455 46.7009C15.481 46.7606 14.9422 47.2464 14.6482 47.6965Z" fill="#F9C8A9"/>
<path d="M7.76043 48.6791C7.7605 48.6814 7.76151 48.6827 7.76128 48.685C7.75292 48.8258 7.6998 50.8505 8.31963 52.1825C8.95339 53.5634 8.45318 55.7289 8.45535 55.7292C8.45341 55.7302 6.67475 54.14 6.55289 52.9509C6.39039 51.5204 7.71273 48.7637 7.76043 48.6791Z" fill="#BC7546"/>
<path d="M8.1494 49.8542C8.62693 50.7284 9.12591 51.4257 9.55242 52.4677C9.79986 53.0755 9.45123 54.648 8.90572 55.3076C8.7292 55.6072 8.45537 55.7293 8.45537 55.7293C8.45304 55.729 8.95349 53.5634 8.31964 52.1825C7.69974 50.8504 7.75293 48.8259 7.76129 48.6851C7.77708 48.7623 7.90088 49.398 8.1494 49.8542Z" fill="#F9C8A9"/>
<path d="M13.5224 50.548C13.5205 50.5496 13.5205 50.5513 13.5184 50.553C13.4022 50.6581 11.7588 52.1905 11.1553 53.5394C10.5288 54.9367 8.40993 56.3045 8.40947 56.305C8.40559 56.3055 8.36108 54.1466 9.22664 53.1735C10.2587 51.9999 13.4233 50.5901 13.5224 50.548Z" fill="#BC7546"/>
<path d="M12.881 51.6632C12.542 52.5926 12.3605 53.3955 11.8493 54.4196C11.551 55.017 10.0302 56.0242 9.08797 56.2287C8.71426 56.3602 8.40968 56.3051 8.40991 56.3051C8.41014 56.3047 10.5292 54.9369 11.1557 53.5396C11.7591 52.1906 13.4026 50.6584 13.5188 50.5531C13.4697 50.6214 13.0585 51.1787 12.881 51.6632Z" fill="#F9C8A9"/>
<path d="M6.23631 53.5476C6.23677 53.5499 6.23824 53.551 6.23855 53.5532C6.26418 53.6919 6.70733 55.6778 7.64652 56.8901C8.61057 58.1477 8.64835 60.3441 8.65137 60.3442C8.65021 60.3451 6.50388 59.0483 6.08952 57.9032C5.57483 56.5269 6.20852 53.637 6.23631 53.5476Z" fill="#BC7546"/>
<path d="M6.90828 54.6382C7.59462 55.4222 8.25858 56.0303 8.93415 56.9877C9.32683 57.5462 9.36686 59.1381 8.99137 59.8649C8.89072 60.1845 8.65118 60.3445 8.65118 60.3445C8.64816 60.3444 8.61022 58.148 7.64626 56.8904C6.70707 55.6781 6.26391 53.6921 6.23828 53.5535C6.27297 53.6264 6.55083 54.2291 6.90828 54.6382Z" fill="#F9C8A9"/>
<path d="M12.3934 54.5251C12.3919 54.5271 12.3921 54.5287 12.3906 54.5307C12.3008 54.6505 11.0446 56.3918 10.778 57.802C10.4987 59.2629 8.74738 60.915 8.74753 60.9156C8.74374 60.9163 8.16805 58.8065 8.7847 57.7266C9.51532 56.4252 12.3047 54.5806 12.3934 54.5251Z" fill="#BC7546"/>
<path d="M12.0268 55.7114C11.9161 56.6712 11.9313 57.4845 11.6757 58.5633C11.5267 59.1926 10.2737 60.4027 9.39616 60.7415C9.06 60.9253 8.74683 60.9159 8.74683 60.9159C8.74659 60.9155 10.4979 59.2632 10.7774 57.8023C11.0441 56.3919 12.3001 54.651 12.3899 54.531C12.3577 54.605 12.0854 55.2108 12.0268 55.7114Z" fill="#F9C8A9"/>
<path d="M6.16602 59.2175C6.16733 59.2196 6.16896 59.2204 6.17012 59.2225C6.24142 59.3505 7.33902 61.1708 8.65517 62.1501C10.01 63.1671 10.7835 65.2839 10.7869 65.2835C10.7866 65.284 8.27797 64.4635 7.48944 63.4436C6.52548 62.2196 6.1678 59.3088 6.16602 59.2175Z" fill="#BC7546"/>
<path d="M7.18429 60.1299C8.11303 60.7447 8.96024 61.1961 9.93435 61.9832C10.5009 62.4425 11.0717 63.9727 10.9537 64.7514C10.964 65.0807 10.787 65.2837 10.7868 65.2837C10.7833 65.284 10.0094 63.1673 8.65497 62.1503C7.33882 61.1708 6.24123 59.3505 6.16992 59.2226C6.2283 59.2856 6.70026 59.8087 7.18429 60.1299Z" fill="#F9C8A9"/>
<path d="M12.4696 58.908C12.4688 58.9102 12.4695 58.9116 12.4687 58.9139C12.4199 59.0478 11.7772 60.9807 11.9898 62.3973C12.2048 63.8653 11.0706 65.8164 11.0719 65.817C11.0687 65.818 9.80179 63.8937 10.0369 62.727C10.3058 61.3221 12.4005 58.9792 12.4696 58.908Z" fill="#BC7546"/>
<path d="M12.5063 60.1262C12.7164 61.075 13.0002 61.8578 13.1118 62.9524C13.176 63.5909 12.3711 65.0134 11.6395 65.5176C11.3773 65.7631 11.0723 65.8169 11.0723 65.8169C11.071 65.8165 12.205 63.8651 11.9902 62.3973C11.7776 60.9806 12.4204 59.0477 12.4691 58.9138C12.4625 58.9918 12.3973 59.6313 12.5063 60.1262Z" fill="#F9C8A9"/>
<path d="M7.53271 64.0339C7.53411 64.0359 7.53573 64.0367 7.53713 64.0387C7.61865 64.1636 8.86187 65.9384 10.2578 66.8689C11.6952 67.8354 12.6357 69.9174 12.6389 69.9169C12.6388 69.9176 10.0609 69.1852 9.19037 68.1967C8.12769 67.0107 7.54162 64.1247 7.53271 64.0339Z" fill="#BC7546"/>
<path d="M8.62598 64.9073C9.60543 65.4879 10.49 65.9083 11.5279 66.6589C12.1317 67.097 12.8226 68.6016 12.7653 69.3811C12.801 69.7089 12.6394 69.917 12.6394 69.917C12.6359 69.9174 11.6958 67.8355 10.2582 66.8689C8.86226 65.9384 7.61897 64.1637 7.5376 64.0388C7.60085 64.0995 8.11539 64.6041 8.62598 64.9073Z" fill="#F9C8A9"/>
<path d="M13.8304 63.5103C13.8299 63.5125 13.8305 63.5139 13.83 63.5162C13.7915 63.6511 13.2961 65.598 13.6194 67.0016C13.9481 68.4564 12.9644 70.438 12.9656 70.4386C12.9623 70.4396 11.5427 68.5661 11.6873 67.3963C11.847 65.988 13.7665 63.5836 13.8304 63.5103Z" fill="#BC7546"/>
<path d="M13.9606 64.7223C14.2446 65.6601 14.5895 66.4302 14.7861 67.5164C14.8999 68.1502 14.2038 69.5943 13.5102 70.1212C13.2664 70.3746 12.9651 70.4385 12.9651 70.4385C12.9639 70.438 13.9477 68.4565 13.619 67.0016C13.2957 65.598 13.7912 63.6511 13.8296 63.5162C13.8288 63.594 13.8132 64.233 13.9606 64.7223Z" fill="#F9C8A9"/>
<path d="M10.2815 69.3159C10.2835 69.3177 10.2856 69.3178 10.2876 69.3196C10.4119 69.4215 12.2584 70.8571 13.9295 71.4508C15.654 72.069 17.3176 73.8823 17.3211 73.8814C17.3217 73.8815 14.6098 73.7326 13.4132 72.9684C11.9611 72.0535 10.3232 69.4007 10.2815 69.3159Z" fill="#BC7546"/>
<path d="M11.6472 69.9163C12.7952 70.2601 13.7924 70.4715 15.0563 70.9699C15.7923 71.2608 17.0046 72.5668 17.2403 73.335C17.3965 73.6447 17.3209 73.8817 17.3209 73.8817C17.3175 73.8826 15.6538 72.0692 13.9292 71.451C12.2577 70.8572 10.4118 69.4216 10.2874 69.3198C10.3702 69.3642 11.0484 69.7365 11.6472 69.9163Z" fill="#F9C8A9"/>
<path d="M14.709 74.0646C14.7115 74.0661 14.7132 74.0659 14.7158 74.0673C14.863 74.1504 17.0224 75.3125 18.7994 75.6714C20.6348 76.0462 22.701 77.6152 22.7041 77.6141C22.7041 77.6141 20.0265 77.833 18.6704 77.2411C17.0284 76.5338 14.7709 74.1419 14.709 74.0646Z" fill="#BC7546"/>
<path d="M16.1924 74.4687C17.3991 74.6502 18.4251 74.7223 19.7811 75.0425C20.5711 75.2295 22.0734 76.3558 22.4914 77.0841C22.7196 77.3693 22.7041 77.6141 22.7041 77.6141C22.7012 77.615 20.6347 76.0461 18.7994 75.6714C17.0225 75.3123 14.8628 74.1503 14.7158 74.0673C14.808 74.0998 15.563 74.3734 16.1924 74.4687Z" fill="#F9C8A9"/>
<path d="M16.0884 67.4234C16.0885 67.4257 16.0899 67.4268 16.0901 67.4292C16.102 67.5679 16.3446 69.556 17.1701 70.8443C18.0173 72.1805 17.8229 74.3161 17.8255 74.3161C17.8238 74.3172 15.7811 72.8101 15.4832 71.6476C15.1088 70.2504 16.0522 67.5079 16.0884 67.4234Z" fill="#BC7546"/>
<path d="M16.6561 68.5655C17.2703 69.4098 17.8804 70.0794 18.4667 71.089C18.8073 71.678 18.6813 73.229 18.2222 73.8904C18.0862 74.189 17.8252 74.3163 17.8252 74.3163C17.8228 74.3162 18.0172 72.1806 17.1699 70.8444C16.3442 69.5561 16.1018 67.5679 16.0898 67.4293C16.1171 67.5045 16.3362 68.125 16.6561 68.5655Z" fill="#F9C8A9"/>
<path d="M19.6635 71.8284C19.664 71.8303 19.666 71.8311 19.6662 71.8331C19.7073 71.9511 20.3561 73.6372 21.3447 74.6499C22.3622 75.7009 22.6655 77.5757 22.6679 77.5755C22.667 77.5761 20.5962 76.5207 20.0837 75.553C19.4547 74.3905 19.6508 71.9059 19.6635 71.8284Z" fill="#BC7546"/>
<path d="M20.4019 72.7437C21.1134 73.3966 21.7823 73.9002 22.5043 74.7016C22.9243 75.1692 23.1572 76.5282 22.9118 77.1577C22.8615 77.4331 22.6674 77.5753 22.6674 77.5753C22.6651 77.5756 22.3617 75.7006 21.3442 74.6497C20.3558 73.6371 19.7069 71.9511 19.6658 71.833C19.706 71.8945 20.0312 72.4028 20.4019 72.7437Z" fill="#F9C8A9"/>
<path d="M32.2295 32.7095C32.2317 32.7112 32.2317 32.7129 32.2337 32.7145C32.3542 32.8215 34.0618 34.3778 34.7318 35.7318C35.4278 37.1343 37.5911 38.5401 37.5913 38.5405C37.5951 38.5408 37.52 36.3935 36.6125 35.4084C35.53 34.2198 32.3298 32.7533 32.2295 32.7095Z" fill="#BC7546"/>
<path d="M32.9252 33.8308C33.3117 34.7613 33.5361 35.5634 34.0971 36.5926C34.4243 37.1931 35.9791 38.2271 36.9187 38.4503C37.2942 38.589 37.591 38.5406 37.591 38.5406C37.5906 38.54 35.4275 37.1343 34.7315 35.7318C34.0615 34.3778 32.3541 32.8216 32.2334 32.7146C32.2857 32.7835 32.7228 33.3456 32.9252 33.8308Z" fill="#F9C8A9"/>
<path d="M29.6914 37.1515C29.6942 37.1519 29.6957 37.153 29.6984 37.1533C29.8675 37.1762 32.2977 37.523 33.8468 38.2526C35.452 39.01 38.1064 38.9589 38.1064 38.9589C38.1086 38.9579 36.3324 37.2761 34.9138 36.9704C33.21 36.5998 29.7987 37.1347 29.6914 37.1515Z" fill="#BC7546"/>
<path d="M31.0657 37.689C32.0724 38.2365 32.8653 38.765 34.081 39.2908C34.7901 39.5983 36.7188 39.5851 37.5604 39.252C37.937 39.1586 38.1065 38.9585 38.1065 38.9585C38.1065 38.9585 35.4519 39.01 33.8469 38.2525C32.298 37.5229 29.8677 37.1761 29.6985 37.1533C29.7895 37.1814 30.5403 37.4041 31.0657 37.689Z" fill="#F9C8A9"/>
<path d="M37.4629 35.7624C37.4646 35.7643 37.4644 35.7659 37.4662 35.7678C37.5669 35.8873 38.9769 37.6214 39.3815 39.031C39.8039 40.4909 41.6898 42.1372 41.6897 42.1377C41.6935 42.1382 42.0461 40.0238 41.3309 38.9468C40.4818 37.6483 37.5558 35.8174 37.4629 35.7624Z" fill="#BC7546"/>
<path d="M37.9423 36.9461C38.1484 37.905 38.2161 38.7185 38.5763 39.7966C38.7867 40.4255 40.1387 41.6311 41.0343 41.9662C41.3829 42.1488 41.6893 42.1379 41.6893 42.1379C41.6896 42.1373 39.8034 40.4911 39.3811 39.0312C38.9767 37.6216 37.5664 35.8875 37.4658 35.768C37.5049 35.8419 37.834 36.446 37.9423 36.9461Z" fill="#F9C8A9"/>
<path d="M34.0559 39.8042C34.0584 39.8048 34.0599 39.8062 34.0626 39.8068C34.2273 39.8499 36.5928 40.4871 37.9994 41.3936C39.4562 42.3337 42.1214 42.6117 42.1218 42.6115C42.1245 42.6111 40.6812 40.7421 39.3199 40.2675C37.6857 39.6933 34.1657 39.8003 34.0559 39.8042Z" fill="#BC7546"/>
<path d="M35.3267 40.4997C36.2274 41.1601 36.9172 41.7758 38.0294 42.4413C38.6775 42.8299 40.6085 43.0545 41.5169 42.8319C41.912 42.7869 42.1218 42.6115 42.1218 42.6115C42.1212 42.6118 39.456 42.3338 37.9993 41.3937C36.5928 40.4873 34.2273 39.8499 34.0625 39.8069C34.1481 39.8456 34.8562 40.1556 35.3267 40.4997Z" fill="#F9C8A9"/>
<path d="M42.3516 39.629C42.3528 39.6313 42.3521 39.6327 42.3532 39.6349C42.4175 39.7686 43.2879 41.7006 43.2557 43.1291C43.228 44.6088 44.5805 46.5549 44.5793 46.5555C44.5828 46.5563 45.5847 44.5987 45.2095 43.4291C44.7719 42.0201 42.4282 39.6994 42.3516 39.629Z" fill="#BC7546"/>
<path d="M42.4678 40.8539C42.38 41.8109 42.1997 42.6026 42.2263 43.7055C42.2427 44.3488 43.2075 45.7674 43.9868 46.2633C44.2741 46.5062 44.5796 46.5555 44.5796 46.5555C44.5804 46.5549 43.2279 44.6088 43.2557 43.1291C43.288 41.7006 42.4176 39.7686 42.3532 39.6349C42.3695 39.7131 42.5127 40.3546 42.4678 40.8539Z" fill="#F9C8A9"/>
<path d="M37.7588 42.8381C37.7612 42.8392 37.7623 42.8408 37.7646 42.8419C37.9144 42.9147 40.059 43.9824 41.1694 45.1247C42.3194 46.3085 44.8586 47.094 44.8591 47.094C44.8627 47.094 44.0171 45.0205 42.8168 44.3013C41.3783 43.4325 37.8679 42.8549 37.7588 42.8381Z" fill="#BC7546"/>
<path d="M38.8039 43.7504C39.4933 44.5578 39.9865 45.2822 40.8792 46.1362C41.3994 46.6346 43.2313 47.2243 44.1949 47.1877C44.5981 47.2213 44.8592 47.0941 44.8589 47.0941C44.8582 47.094 42.3192 46.3086 41.1692 45.1248C40.0588 43.9824 37.9143 42.9148 37.7644 42.842C37.8375 42.8955 38.4435 43.3295 38.8039 43.7504Z" fill="#F9C8A9"/>
<path d="M45.8835 43.9566C45.8844 43.9589 45.8833 43.9603 45.8842 43.9626C45.9277 44.1005 46.4925 46.091 46.2305 47.5C45.9661 48.96 47.0056 51.0128 47.0043 51.0132C47.0073 51.0141 48.3267 49.1723 48.1399 47.9812C47.9298 46.5471 45.9498 44.0333 45.8835 43.9566Z" fill="#BC7546"/>
<path d="M45.8046 45.1774C45.5637 46.1146 45.2567 46.8801 45.107 47.9731C45.0206 48.6106 45.7592 50.1047 46.4585 50.6687C46.7069 50.9359 47.0044 51.0135 47.0044 51.0135C47.0059 51.0131 45.9663 48.9603 46.2306 47.5003C46.4926 46.0911 45.9275 44.1008 45.8842 43.9629C45.8881 44.0414 45.9295 44.6885 45.8046 45.1774Z" fill="#F9C8A9"/>
<path d="M40.7705 46.6964C40.7729 46.6978 40.7732 46.6995 40.7757 46.7008C40.9145 46.7866 42.8937 48.0431 43.8223 49.2774C44.7844 50.5563 47.1963 51.5721 47.1972 51.5725C47.2009 51.5726 46.6903 49.4418 45.603 48.6176C44.3021 47.6228 40.877 46.7231 40.7705 46.6964Z" fill="#BC7546"/>
<path d="M41.6727 47.6966C42.2352 48.5598 42.6136 49.3225 43.3703 50.2512C43.8112 50.7932 45.5481 51.5483 46.5176 51.6029C46.9154 51.6741 47.197 51.5727 47.197 51.5727C47.196 51.5724 44.784 50.5565 43.822 49.2776C42.8935 48.0434 40.9143 46.787 40.7754 46.701C40.84 46.7607 41.3787 47.2466 41.6727 47.6966Z" fill="#F9C8A9"/>
<path d="M48.5591 48.6794C48.559 48.6817 48.558 48.6829 48.5582 48.6853C48.5665 48.8261 48.6197 50.8507 47.9998 52.1827C47.3661 53.5637 47.8663 55.7291 47.8641 55.7295C47.8661 55.7304 49.6447 54.1402 49.7666 52.9511C49.9291 51.5206 48.6068 48.7639 48.5591 48.6794Z" fill="#BC7546"/>
<path d="M48.1705 49.8544C47.693 50.7286 47.194 51.4258 46.7676 52.4678C46.5201 53.0756 46.8688 54.6481 47.4143 55.3077C47.5908 55.6073 47.8646 55.7295 47.8646 55.7295C47.867 55.7291 47.3665 53.5636 48.0003 52.1826C48.6203 50.8505 48.567 48.826 48.5587 48.6852C48.5429 48.7624 48.419 49.3982 48.1705 49.8544Z" fill="#F9C8A9"/>
<path d="M42.7981 50.548C42.8 50.5496 42.8 50.5513 42.8021 50.553C42.9183 50.6582 44.5617 52.1906 45.1652 53.5395C45.7917 54.9368 47.9106 56.3046 47.911 56.305C47.9149 56.3056 47.9594 54.1467 47.0939 53.1736C46.0619 51.9999 42.8972 50.5902 42.7981 50.548Z" fill="#BC7546"/>
<path d="M43.4399 51.6633C43.7788 52.5926 43.9604 53.3955 44.4716 54.4196C44.7699 55.0171 46.2907 56.0242 47.2328 56.2288C47.6066 56.3603 47.9111 56.3052 47.9111 56.3052C47.9106 56.3048 45.7916 54.937 45.1651 53.5396C44.5617 52.1907 42.9182 50.6584 42.802 50.5532C42.851 50.6214 43.2623 51.1788 43.4399 51.6633Z" fill="#F9C8A9"/>
<path d="M50.084 53.5476C50.0835 53.5499 50.0821 53.551 50.0818 53.5532C50.0561 53.6919 49.613 55.6778 48.6738 56.8901C47.7097 58.1477 47.672 60.3441 47.6689 60.3442C47.67 60.3451 49.8164 59.0483 50.2308 57.9032C50.7455 56.5269 50.1117 53.637 50.084 53.5476Z" fill="#BC7546"/>
<path d="M49.412 54.6381C48.7257 55.4221 48.0618 56.0302 47.3862 56.9876C46.9935 57.5461 46.9535 59.138 47.329 59.8647C47.4296 60.1844 47.6691 60.3443 47.6691 60.3443C47.6722 60.3443 47.71 58.1478 48.6741 56.8903C49.6132 55.678 50.0564 53.692 50.082 53.5533C50.0473 53.6262 49.7695 54.229 49.412 54.6381Z" fill="#F9C8A9"/>
<path d="M43.9277 54.5253C43.9293 54.5272 43.929 54.5288 43.9306 54.5308C44.0203 54.6506 45.2766 56.3919 45.543 57.8021C45.8225 59.263 47.5738 60.9152 47.5738 60.9152C47.5773 60.9164 48.1531 58.8066 47.5365 57.7268C46.8059 56.4253 44.0165 54.5807 43.9277 54.5253Z" fill="#BC7546"/>
<path d="M44.2938 55.7113C44.4046 56.6711 44.3893 57.4845 44.6448 58.5633C44.7939 59.1925 46.0467 60.4026 46.9244 60.7414C47.2605 60.9253 47.5737 60.9158 47.5737 60.9158C47.5739 60.9154 45.8226 59.2631 45.5431 57.8023C45.2765 56.3919 44.0205 54.6509 43.9307 54.5309C43.9628 54.605 44.2352 55.2107 44.2938 55.7113Z" fill="#F9C8A9"/>
<path d="M50.1541 59.2175C50.1528 59.2197 50.1512 59.2204 50.15 59.2225C50.0788 59.3506 48.9811 61.1708 47.665 62.1502C46.3102 63.1672 45.5367 65.284 45.5332 65.2836C45.5336 65.284 48.0422 64.4636 48.8307 63.4437C49.7946 62.2196 50.1522 59.3088 50.1541 59.2175Z" fill="#BC7546"/>
<path d="M49.1357 60.1298C48.207 60.7447 47.3597 61.196 46.3856 61.9831C45.8191 62.4425 45.2483 63.9726 45.3662 64.7513C45.356 65.0807 45.533 65.2836 45.5332 65.2836C45.5367 65.284 46.3104 63.1673 47.6649 62.1502C48.9811 61.1708 50.0786 59.3504 50.15 59.2225C50.0916 59.2855 49.6197 59.8086 49.1357 60.1298Z" fill="#F9C8A9"/>
<path d="M43.8506 58.908C43.8514 58.9102 43.8507 58.9116 43.8514 58.9139C43.9002 59.0478 44.5429 60.9807 44.3303 62.3973C44.1153 63.8653 45.2495 65.8164 45.2482 65.817C45.2514 65.818 46.5183 63.8937 46.2832 62.727C46.0143 61.3221 43.9197 58.9792 43.8506 58.908Z" fill="#BC7546"/>
<path d="M43.8141 60.1263C43.6041 61.075 43.3203 61.8579 43.2087 62.9524C43.1445 63.591 43.9494 65.0134 44.6809 65.5177C44.9431 65.7631 45.2482 65.817 45.2482 65.817C45.2495 65.8166 44.1155 63.8652 44.3303 62.3973C44.5429 60.9806 43.9002 59.0478 43.8514 58.9139C43.858 58.9918 43.9232 59.6313 43.8141 60.1263Z" fill="#F9C8A9"/>
<path d="M48.7884 64.0338C48.787 64.0359 48.7854 64.0367 48.7839 64.0386C48.7025 64.1636 47.4592 65.9383 46.0633 66.8688C44.6259 67.8354 43.6854 69.9173 43.6821 69.9169C43.6823 69.9175 46.2602 69.1852 47.1307 68.1967C48.1934 67.0107 48.7795 64.1247 48.7884 64.0338Z" fill="#BC7546"/>
<path d="M47.6961 64.9072C46.7166 65.4878 45.832 65.9082 44.7941 66.6588C44.1903 67.0969 43.4994 68.6015 43.5567 69.381C43.5209 69.7088 43.6826 69.9169 43.6826 69.9169C43.6861 69.9172 44.6262 67.8354 46.0637 66.8688C47.4596 65.9382 48.703 64.1636 48.7844 64.0386C48.7211 64.0994 48.2066 64.604 47.6961 64.9072Z" fill="#F9C8A9"/>
<path d="M42.4905 63.5103C42.491 63.5124 42.4903 63.5139 42.4909 63.5162C42.5294 63.651 43.0248 65.598 42.7014 67.0015C42.3727 68.4564 43.3564 70.438 43.3552 70.4385C43.3584 70.4395 44.7781 68.5661 44.6334 67.3962C44.4738 65.988 42.5544 63.5835 42.4905 63.5103Z" fill="#BC7546"/>
<path d="M42.3595 64.7223C42.0755 65.6601 41.7306 66.4302 41.534 67.5164C41.4201 68.1502 42.1163 69.5943 42.8099 70.1212C43.0537 70.3746 43.355 70.4385 43.355 70.4385C43.3561 70.438 42.3723 68.4565 42.7011 67.0016C43.0244 65.598 42.5289 63.6511 42.4905 63.5162C42.4914 63.594 42.5068 64.233 42.3595 64.7223Z" fill="#F9C8A9"/>
<path d="M46.0396 69.3159C46.0377 69.3177 46.0356 69.3178 46.0336 69.3196C45.9093 69.4215 44.0628 70.8571 42.3916 71.4508C40.6672 72.069 39.0036 73.8823 39 73.8814C39 73.8814 41.7113 73.7326 42.9079 72.9684C44.3601 72.0535 45.998 69.4007 46.0396 69.3159Z" fill="#BC7546"/>
<path d="M44.6732 69.9163C43.5251 70.2601 42.528 70.4715 41.264 70.9698C40.5281 71.2608 39.3157 72.5668 39.08 73.3349C38.9239 73.6447 38.9995 73.8817 38.9995 73.8817C39.0029 73.8825 40.6665 72.0691 42.3912 71.451C44.0627 70.8571 45.9086 69.4216 46.0331 69.3198C45.9501 69.3642 45.2718 69.7364 44.6732 69.9163Z" fill="#F9C8A9"/>
<path d="M41.6115 74.0646C41.609 74.0661 41.6073 74.0659 41.6047 74.0673C41.4575 74.1504 39.2981 75.3125 37.5212 75.6714C35.6858 76.0462 33.6195 77.6152 33.6165 77.6141C33.6165 77.6141 36.294 77.833 37.65 77.2411C39.2921 76.5338 41.5496 74.1419 41.6115 74.0646Z" fill="#BC7546"/>
<path d="M40.1285 74.4687C38.9218 74.6502 37.8957 74.7223 36.5396 75.0425C35.7497 75.2295 34.2474 76.3558 33.8294 77.0841C33.601 77.3693 33.6167 77.6141 33.6167 77.6141C33.6196 77.615 35.6861 76.0461 37.5215 75.6714C39.2984 75.3123 41.4579 74.1503 41.605 74.0673C41.5128 74.0998 40.7578 74.3734 40.1285 74.4687Z" fill="#F9C8A9"/>
<path d="M40.2336 67.4233C40.2335 67.4256 40.232 67.4268 40.2319 67.4291C40.22 67.5678 39.9775 69.5559 39.1519 70.8443C38.3046 72.1804 38.499 74.316 38.4966 74.3161C38.4982 74.3172 40.5409 72.81 40.8388 71.6476C41.2131 70.2504 40.2697 67.5079 40.2336 67.4233Z" fill="#BC7546"/>
<path d="M39.6655 68.5654C39.0514 69.4097 38.4412 70.0793 37.8549 71.0888C37.5143 71.6778 37.6403 73.2289 38.0994 73.8902C38.2355 74.1888 38.4965 74.3162 38.4965 74.3162C38.4989 74.316 38.3045 72.1804 39.1518 70.8443C39.9774 69.556 40.2198 67.5678 40.2319 67.4291C40.2044 67.5044 39.9853 68.1249 39.6655 68.5654Z" fill="#F9C8A9"/>
<path d="M36.6577 71.8282C36.6572 71.8302 36.6553 71.8309 36.655 71.833C36.6138 71.951 35.9651 73.6371 34.9764 74.6497C33.959 75.7008 33.6557 77.5756 33.6533 77.5753C33.6542 77.576 35.725 76.5206 36.2375 75.5529C36.8665 74.3903 36.6704 71.9057 36.6577 71.8282Z" fill="#BC7546"/>
<path d="M35.9186 72.7436C35.2071 73.3966 34.5381 73.9001 33.8162 74.7015C33.3961 75.1692 33.1632 76.5282 33.4087 77.1577C33.459 77.433 33.6531 77.5753 33.6531 77.5753C33.6554 77.5755 33.9588 75.7006 34.9761 74.6497C35.9647 73.637 36.6136 71.951 36.6547 71.8329C36.6144 71.8945 36.2893 72.4027 35.9186 72.7436Z" fill="#F9C8A9"/>
<path d="M32.6865 78.1068C32.6865 79.1536 30.6887 80.0021 28.2243 80.0021C25.7598 80.0021 23.762 79.1536 23.762 78.1068C23.762 77.0601 25.7598 76.2115 28.2243 76.2115C30.6886 76.2116 32.6865 77.0601 32.6865 78.1068Z" fill="#BC7546"/>
<path d="M28.2245 79.6707C25.7919 79.6707 24.0967 78.8465 24.0967 78.1068C24.0967 77.3672 25.7919 76.5429 28.2245 76.5429C30.6572 76.5429 32.3524 77.3672 32.3524 78.1068C32.3524 78.8465 30.6571 79.6707 28.2245 79.6707Z" fill="#F9C8A9"/>
<path d="M27.7043 68.5296C24.84 68.5296 22.0008 68.0156 19.9154 67.1188L19.1992 66.8108V60.3095H21.2683L21.5518 60.4796C23.1701 61.4487 25.4947 62.1003 27.3361 62.1003C30.219 62.1003 30.219 60.7392 30.219 60.2919C30.219 59.6979 30.219 59.0834 27.2757 59.0834C26.9522 59.0834 26.6234 59.0888 26.2947 59.0947C25.9525 59.1001 25.6104 59.1059 25.2741 59.1059H24.0845V53.0482L26.6095 53.0539C27.5052 53.0539 29.3687 53.0539 29.7874 52.4598C29.849 52.351 29.975 51.911 29.8322 51.6307C29.691 51.354 29.2088 51.1505 28.5095 51.0723C28.1715 51.0342 27.8281 51.015 27.489 51.015C25.6993 51.015 23.8921 51.5428 22.1188 52.5842L21.8383 52.7488H19.8029V46.2801L20.5487 45.9828C22.7287 45.1136 25.6227 44.5946 28.2889 44.5946C32.4804 44.5946 35.5051 45.8363 36.8074 48.0911C37.724 49.6834 37.7984 51.6811 37.0067 53.4359C36.5983 54.3399 35.9959 55.1104 35.2501 55.7062C36.9044 56.6854 37.9628 58.3263 38.1144 60.3188C38.4177 64.3005 35.1961 67.0969 32.0757 68.0093C30.9113 68.3495 29.3998 68.5296 27.7043 68.5296Z" fill="#BC7546"/>
<path d="M31.7383 66.8787C29.0387 67.6681 23.8358 67.5195 20.3887 66.0372V61.4885H20.9364C24.5753 63.6686 31.408 64.4765 31.408 60.2919C31.408 57.5082 28.1245 57.927 25.2739 57.927V54.2269C27.5526 54.2269 29.8852 54.3788 30.7623 53.135C31.1074 52.6457 31.8389 50.2582 28.643 49.9008C26.1017 49.6145 23.6835 50.2953 21.5116 51.57H20.9923V47.0764C25.333 45.3461 33.5678 44.8555 35.7738 48.6763C37.2757 51.2839 35.8142 55.047 32.4047 55.7708V55.9659C38.5879 56.8075 38.5344 64.8907 31.7383 66.8787Z" fill="#F9C8A9"/>
</svg>
